<svg xmlns="http://www.w3.org/2000/svg" xmlns:xlink="http://www.w3.org/1999/xlink" xml:space="preserve" id="svg2" x="0" y="0" viewBox="0 0 523.7 531.1"><style>.st3{fill:#fcd116;stroke:#ce1126;stroke-width:.25}.st4{fill:#fbd118;stroke:#ce2028;stroke-width:.2911;stroke-linejoin:round}.st4,.st5,.st6,.st7,.st8{stroke-miterlimit:2.6131}.st5{fill:#fbd118;stroke:#ce2028;stroke-width:.3327;stroke-linejoin:round}.st6,.st7,.st8{fill:#ce1126;stroke:#fcd116}.st7,.st8{fill:none;stroke-width:9}.st8{fill:#ff0;stroke:#ff0;stroke-width:.25}.st9{fill:#ce1126}.st10{fill:none}.st11{fill:#fcd116}.st13{fill:none;stroke:#ce1126}.st15{display:inline;fill:#fcd134}.st16{fill:#fbd118}.st17{fill:none;stroke:#ce2028;stroke-linejoin:round;stroke-miterlimit:2.6131}.st18,.st20,.st21{fill:#fcd116;stroke:#ce1126;stroke-miterlimit:2.6131}.st20,.st21{fill:none;stroke:#fcd116;stroke-width:.6238}.st21{fill:#ce1128}.st23{fill:#fcd134}.st24{fill:#ffe500}.st25{opacity:.3;fill:#945804;enable-background:new}</style><g id="Bong_lua" transform="translate(-6.627 -10.41)"><circle id="circle5" cx="268.5" cy="258" r="218.6" style="stroke:#fcd116;stroke-width:58"/><circle id="circle7" cx="268.5" cy="258" r="192.5" style="fill:#ce1126;stroke:#fcd116;stroke-width:3"/><circle id="circle9" cx="268.5" cy="258" r="242.6" style="fill:none;stroke:#ce1126;stroke-width:3"/><g id="g11"><g id="g13"><g id="g15"><path id="path17" d="M244.3 19.7c2.9-.1 8.2 0 10.4 2.7 1.1 1.4.6 1.2 1.3 1.5 8 2.7-1.3.2-1.3 1.4-.1 2.7-8.1 5.7-26.7 5.6-13.3.3-3.9-6.5-3.8-6.6 2.9-2.1 17.2-4.8 20.1-4.6z" class="st3"/><path id="path19" d="M223.4 22.7c2.9-.2 8.2-.7 10.6 1.8 1.2 1.3.7 1.2 1.4 1.3 8.2 2.2-1.3.3-1.1 1.5.1 2.8-7.5 6.5-26 8-13.2 1.4-4.5-6.2-4.4-6.2 2.6-2.4 16.6-6.3 19.5-6.4z" class="st3"/><path id="path21" d="M202.8 27.6c2.9-.4 8.1-1.5 10.7.8 1.3 1.2.8 1.1 1.5 1.3 8.3 1.5-1.2.4-1 1.6.4 2.8-6.9 7.2-25.2 10.3-13.1 2.4-5-5.8-4.9-5.8 2.4-2.7 16-7.9 18.9-8.2z" class="st3"/><path id="path23" d="M182.7 34.3c2.8-.7 7.9-2.4 10.7-.1 1.4 1.1.9 1.1 1.6 1.1 8.4.7-1.2.5-.9 1.7.6 2.7-6.2 7.7-24.2 12.5-12.8 3.7-5.5-5.3-5.4-5.3 2.3-2.9 15.4-9.4 18.2-9.9z" class="st3"/><path id="path25" d="M157.7 45.5c2.7-1.1 7.6-3.1 10.6-1.3 1.5.9 1 .9 1.7.9 8.4-.3-1.1.6-.7 1.8.9 2.6-5.3 8.3-22.6 15.2-12.2 5.2-6.1-4.6-6-4.7 2-3.1 14.2-10.9 17-11.9z" class="st3"/><path id="path27" d="M139.4 56.1c2.6-1.3 7.3-3.7 10.5-2.3 1.6.7 1.1.8 1.8.7 8.4-1-1.1.7-.5 1.9 1.2 2.6-4.6 8.8-21.2 17.1-11.8 6.2-6.5-4.1-6.4-4.1 1.6-3.2 13.1-12 15.8-13.3z" class="st3"/><path id="path29" d="M122.1 68.3c2.5-1.5 6.9-4.4 10.2-3.2 1.7.6 1.1.8 1.9.6 8.3-1.8-1 .8-.4 1.8 1.4 2.5-3.7 9.2-19.6 19-11.2 7.1-6.8-3.5-6.7-3.6 1.4-3.2 12-13.1 14.6-14.6z" class="st3"/><path id="path31" d="M106 82c2.4-1.7 6.4-5.1 9.9-4.1 1.7.5 1.2.7 1.9.4 8.1-2.5-.9.9-.2 1.9 1.6 2.3-2.9 9.5-17.9 20.6-10.5 8.1-7-2.9-7-2.9 1.1-3.5 10.8-14.3 13.3-15.9z" class="st3"/><path id="path33" d="M85.2 103.8c2-2.1 5.8-5.8 9.3-5.3 1.8.3 1.3.5 1.9.2 7.6-3.6-.7 1.1.1 1.9 1.9 2.1-1.8 9.7-15.2 22.6-9.3 9.5-7.3-2-7.3-2 .6-3.6 9-15.5 11.2-17.4z" class="st3"/><path id="path35" d="M72.3 120.5c1.8-2.3 5.3-6.3 8.8-6.1 1.8.1 1.3.4 2 0 7.2-4.3-.6 1.1.2 1.9 2 1.9-.9 9.8-13.2 23.8-8.4 10.3-7.5-1.3-7.4-1.4.3-3.5 7.6-16 9.6-18.2z" class="st3"/><path id="path37" d="M60.9 138.4c1.6-2.4 4.8-6.7 8.2-6.8 1.8-.1 1.3.3 1.9-.2 6.9-4.8-.6 1.1.4 1.9 2.2 1.7-.1 9.9-11 24.9-7.5 10.9-7.6-.7-7.6-.8.1-3.5 6.3-16.7 8.1-19z" class="st3"/><path id="path39" d="M51.1 157.1c1.5-2.5 4.2-7.1 7.6-7.5 1.8-.2 1.4.1 1.9-.4 6.6-5.4-.5 1.2.6 1.8 2.4 1.5.9 9.9-8.7 25.8-6.6 11.5-7.7 0-7.6-.1-.3-3.4 4.6-17.1 6.2-19.6z" class="st3"/><path id="path41" d="M41.1 182.7c1.1-2.7 3.2-7.6 6.7-8.4 1.7-.4 1.4 0 1.9-.6 5.8-6.1-.3 1.3.8 1.7 2.5 1.2 1.9 9.7-5.7 26.6-5.1 12.3-7.5.9-7.5.8-1-3.4 2.4-17.5 3.8-20.1z" class="st3"/><path id="path43" d="M35.3 203c.8-2.8 2.6-7.8 5.9-8.9 1.7-.6 1.4-.1 1.8-.7 5.1-6.6-.2 1.3.9 1.7 2.6 1 2.8 9.5-3.3 27-4 12.6-7.4 1.6-7.4 1.5-1.1-3.4 1-17.8 2.1-20.6z" class="st3"/><path id="path45" d="M31.4 223.8c.7-2.8 2-8 5.1-9.4 1.6-.7 1.3-.3 1.7-.9 4.6-7.1-.1 1.3 1.1 1.6 2.7.8 3.7 9.2-.9 27.2-3 12.9-7.4 2.2-7.3 2.1-1.4-3.2-.6-17.7.3-20.6z" class="st3"/><path id="path47" d="M29.3 244.9c.5-2.9 1.2-8.1 4.2-9.8 1.5-.9 1.3-.4 1.7-1 4.1-7.4 0 1.3 1.2 1.5 2.8.5 4.5 8.9 1.5 27.2-1.9 13.2-7.1 2.8-7.1 2.7-1.6-3.2-2.1-17.7-1.5-20.6z" class="st3"/><path id="path49" d="M29.2 270.4c.2-2.9.4-8.2 3.2-10.2 1.4-1 1.3-.5 1.5-1.2 3.3-7.8.1 1.3 1.4 1.3 2.8.2 5.4 8.3 4.4 26.9-.6 13.3-6.7 3.6-6.7 3.5-2.1-3-4-17.4-3.8-20.3z" class="st3"/><path id="path51" d="M31.3 291.5c0-2.9-.5-8.2 2.3-10.5 1.4-1.1 1.2-.6 1.5-1.3 2.6-8.1.3 1.3 1.4 1.2 2.8 0 6.1 7.8 6.7 26.4.8 13.3-6.4 4.1-6.4 4-2.3-2.7-5.6-16.9-5.5-19.8z" class="st3"/><path id="path53" d="M35.1 312.3c-.4-2.9-1.2-8.1 1.4-10.6 1.3-1.3 1.2-.7 1.3-1.5 1.7-8.2.4 1.2 1.6 1.1 2.8-.3 6.7 7.3 9 25.7 2 13.1-6 4.7-6 4.6-2.5-2.6-7.1-16.4-7.3-19.3z" class="st3"/><path id="path55" d="M40.8 332.6c-.7-2.8-1.8-8 .4-10.7 1.1-1.4 1.1-.8 1.2-1.6.9-8.3.5 1.2 1.7.9 2.7-.5 7.3 6.6 11.2 24.8 3.1 12.9-5.6 5.2-5.6 5.1-2.7-2.2-8.4-15.5-8.9-18.5z" class="st3"/><path id="path57" d="M50.9 358.2c-1-2.7-2.8-7.7-.8-10.7 1-1.5 1-.9 1-1.7 0-8.4.6 1.1 1.7.8 2.7-.8 8 5.8 14 23.4 4.7 12.4-4.9 5.8-4.9 5.7-3-2-10.2-14.7-11-17.5z" class="st3"/><path id="path59" d="M60.6 377c-1.3-2.6-3.4-7.5-1.8-10.6.8-1.6.9-1 .8-1.8-.8-8.4.7 1.1 1.8.6 2.5-1 8.5 5 16 22 5.7 12-4.4 6.2-4.5 6.2-2.9-1.7-11.3-13.6-12.3-16.4z" class="st3"/><path id="path61" d="M71.9 394.9c-1.4-2.6-4-7.2-2.7-10.4.7-1.6.8-1.1.7-1.8-1.4-8.3.8 1 1.9.4 2.5-1.3 9 4.2 17.9 20.5 6.6 11.5-3.9 6.6-3.9 6.5-3.3-1.4-12.6-12.6-13.9-15.2z" class="st3"/><path id="path63" d="M84.7 411.7c-1.6-2.5-4.7-6.8-3.6-10.1.6-1.7.7-1.2.5-1.9-2.1-8.2.9.9 1.9.3 2.4-1.5 9.4 3.4 19.7 18.8 7.6 10.9-3.2 6.9-3.3 6.8-3.4-1.1-13.6-11.4-15.2-13.9z" class="st3"/></g></g></g><path id="path3409_1_" d="M104.3 326.7c-54.8-61.6-1.1-120.3-1.1-120.3s-32.7 68.2 4.7 102.1l-3.6 18.2z" class="st4"/><path id="path66" d="M154 401.5S120.5 369 131.2 344s32.1-8.5 32.1-8.5-26.3 5-23.7 23.5c2.8 20 23.7 35 23.7 35z" class="st5"/><g id="g68"><g id="g70"><g id="g72"><path id="path74" d="M49 191.1c.9-1.9 2.4-5.3 5.6-5.7 1.6-.2 1.3.1 1.7-.3 4.8-4.2-.2.9 1 1.4 2.5 1.1 3.3 7.4-3.1 19.1-4.3 8.5-7.3.1-7.3.1-1-2.6 1.2-12.7 2.1-14.6z" class="st3"/><path id="path76" d="M45.1 205.6c.7-2 2-5.5 5.2-6.1 1.6-.3 1.3 0 1.7-.4 4.5-4.5-.1.9 1 1.3 2.5.9 3.7 7.1-1.8 19.3-3.8 8.8-7.4.6-7.3.6-1.1-2.5.3-12.8 1.2-14.7z" class="st3"/><path id="path78" d="M42.1 220.3c.7-2 1.6-5.6 4.7-6.4 1.6-.4 1.3-.1 1.7-.5 4.3-4.8 0 .9 1.1 1.2 2.7.7 4.2 6.9-.4 19.4-3.2 9-7.3 1.1-7.3 1-1.2-2.4-.6-12.7.2-14.7z" class="st3"/><path id="path80" d="M40 235.2c.6-2 1.3-5.7 4.4-6.7 1.5-.5 1.3-.2 1.6-.6 3.8-5.1 0 .9 1.2 1.1 2.6.6 4.7 6.6.8 19.4-2.5 9.2-7.2 1.6-7.2 1.5-1.5-2.3-1.2-12.6-.8-14.7z" class="st3"/><path id="path82" d="M39 254.7c.4-2.1.8-5.8 3.7-7.1 1.5-.6 1.3-.3 1.6-.8 3.6-5.4 0 .9 1.3 1 2.8.3 5.2 6.2 2.5 19.2-1.8 9.4-7.1 2.2-7.1 2.1-1.5-2-2.6-12.3-2-14.4z" class="st3"/><path id="path84" d="M39.2 269.7c.2-2.1.5-5.8 3.3-7.3 1.5-.7 1.3-.4 1.5-.9 3-5.6.2.9 1.4.9 2.7.1 5.6 5.8 3.7 19-1 9.5-6.8 2.7-6.9 2.6-1.7-2-3.2-12.2-3-14.3z" class="st3"/><path id="path86" d="M40.5 284.7c-.1-2.1.1-5.9 2.8-7.5 1.4-.8 1.2-.5 1.5-1 2.7-5.8.2.9 1.4.8 2.6 0 6 5.4 5 18.7-.5 9.5-6.7 3.1-6.7 3.1-2-1.9-4-12-4-14.1z" class="st3"/><path id="path88" d="M42.8 299.5c-.1-2.1-.5-5.8 2.2-7.7 1.4-.9 1.2-.5 1.4-1.1 2.4-5.9.3.9 1.4.8 2.6-.2 6.4 5 6.3 18.4 0 9.6-6.5 3.6-6.5 3.5-2-1.8-4.8-11.7-4.8-13.9z" class="st3"/><path id="path90" d="M47.7 320.4c-.4-2-.9-5.8 1.5-7.9 1.3-1.1 1.1-.7 1.3-1.2 1.7-6.1.4.8 1.5.6 2.6-.5 6.8 4.4 7.9 17.7 1.1 9.5-6.1 4.2-6.1 4.1-2.2-1.6-5.8-11.3-6.1-13.3z" class="st3"/><path id="path92" d="M52.4 334.6c-.4-2-1.4-5.7.9-7.9 1.2-1.1 1.1-.7 1.2-1.3 1.4-6.3.4.8 1.6.5 2.6-.6 7.1 3.9 9.2 17.1 1.6 9.4-5.8 4.6-5.8 4.5-2.4-1.4-6.8-10.8-7.1-12.9z" class="st3"/><path id="path94" d="M57.9 348.6c-.5-2-1.7-5.6.4-8 1.1-1.2 1-.8 1.1-1.4 1.1-6.4.4.8 1.6.4 2.7-.9 7.2 3.5 10.3 16.4 2.3 9.3-5.5 5-5.5 4.9-2.2-1.3-7.5-10.2-7.9-12.3z" class="st3"/><path id="path96" d="M64.4 362.2c-.6-2-2-5.5-.1-8 1-1.3 1-.9 1-1.4.4-6.3.5.7 1.6.3 2.5-1 7.5 2.9 11.3 15.8 3 9-5.1 5.3-5.1 5.2-2.5-1.2-8-10-8.7-11.9z" class="st3"/><path id="path98" d="M74.2 379c-.8-1.9-2.6-5.2-.9-7.9.9-1.4.9-1 .9-1.5 0-6.4.6.7 1.6.2 2.5-1.3 7.7 2.3 12.7 14.7 3.6 8.8-4.7 5.8-4.7 5.7-2.3-1.1-8.9-9.2-9.6-11.2z" class="st3"/><path id="path100" d="M82.7 391.4c-.9-1.9-2.9-5.1-1.3-7.9.8-1.4.8-1 .8-1.6-.6-6.3.7.6 1.7 0 2.3-1.4 7.9 1.7 13.6 13.9 4.4 8.5-4.2 6-4.3 5.9-2.7-.7-9.5-8.4-10.5-10.3z" class="st3"/><path id="path102" d="M92 403.2c-1.2-1.7-3.2-4.9-1.8-7.8.7-1.5.8-1.1.7-1.6-.9-6.3.7.6 1.6-.1 2.2-1.5 8 1.2 14.5 12.9 4.8 8.2-3.8 6.3-3.9 6.2-2.7-.5-10-7.8-11.1-9.6z" class="st3"/><path id="path104" d="M102.1 414.3c-1.2-1.7-3.6-4.6-2.4-7.6.6-1.5.7-1.1.6-1.7-1.3-6.3.7.6 1.6-.2 2.1-1.7 8.1.7 15.3 11.9 5.3 8-3.4 6.5-3.5 6.5-2.5-.4-10.4-7.1-11.6-8.9z" class="st3"/></g><g id="g106"><path id="path108" d="M247.4 33.5c2.1.2 5.8.3 7.4 3.1.8 1.4.4 1.3.9 1.5 5.6 2.9-.9.2-.9 1.4-.1 2.7-5.7 5.8-19 4.1-9.5-.9-2.8-6.8-2.7-6.8 2-1.8 12.2-3.4 14.3-3.3z" class="st3"/><path id="path110" d="M232.5 35.1c2.1-.1 5.8-.1 7.6 2.6.9 1.4.5 1.2 1 1.5 5.8 2.6-.9.3-.8 1.4.1 2.7-5.3 6.1-18.6 5.4-9.6-.4-3.3-6.6-3.2-6.6 1.8-2 11.9-4.3 14-4.3z" class="st3"/><path id="path112" d="M217.7 37.7c2.1-.1 5.8-.6 7.7 2 1 1.3.6 1.2 1.1 1.4 6 2.3-.9.3-.7 1.5.3 2.8-4.9 6.4-18.2 6.7-9.5.3-3.7-6.4-3.6-6.4 1.7-2 11.5-5.2 13.7-5.2z" class="st3"/><path id="path114" d="M203.1 41.3c2.1-.2 5.8-.8 7.9 1.6 1 1.3.6 1.1 1.2 1.3 6.1 1.7-.8.4-.6 1.5.5 2.7-4.4 6.8-17.7 7.8-9.5 1-4.1-6.1-4.1-6.1 1.5-2.3 11.2-5.8 13.3-6.1z" class="st3"/><path id="path116" d="M184.5 47.4c2-.4 5.7-1.4 7.9.8 1.1 1.1.7 1.1 1.3 1.2 6.3 1.3-.8.4-.5 1.6.7 2.7-3.8 7.1-17 9.3-9.3 1.9-4.6-5.7-4.6-5.7 1.6-2.3 10.8-6.9 12.9-7.2z" class="st3"/><path id="path118" d="M170.6 53.2c2-.7 5.6-1.7 8 .4 1.2 1.1.8 1 1.4 1.1 6.3.8-.8.5-.4 1.6.8 2.5-3.4 7.3-16.3 10.5-9.3 2.4-5-5.4-5-5.4 1.3-2.6 10.3-7.7 12.3-8.2z" class="st3"/><path id="path120" d="M157.2 59.9c2-.7 5.4-2.2 8-.2 1.3 1 .9 1 1.5 1 6.4.5-.7.5-.3 1.6 1.1 2.5-2.8 7.6-15.6 11.6-9 3-5.4-5.1-5.3-5.1 1.2-2.5 9.7-8.4 11.7-8.9z" class="st3"/><path id="path122" d="M144.2 67.4c1.9-.8 5.3-2.5 8-.7 1.4.9.9.9 1.5.9 6.3-.1-.7.6-.2 1.6 1.2 2.4-2.3 7.7-14.8 12.6-8.8 3.7-5.7-4.7-5.6-4.7.9-2.6 9.2-8.8 11.1-9.7z" class="st3"/><path id="path124" d="M126.7 79.6c1.8-1 5.1-3 7.9-1.4 1.4.8 1 .8 1.6.8 6.3-.7-.6.7 0 1.7 1.4 2.3-1.6 7.9-13.5 13.9-8.4 4.5-6.1-4.1-6-4.2.5-2.8 8.2-9.7 10-10.8z" class="st3"/><path id="path126" d="M115.1 89.2c1.7-1.2 4.8-3.4 7.7-2 1.5.7 1.1.8 1.6.7 6.3-1-.6.7.1 1.6 1.6 2.2-1.1 8-12.6 14.8-8.2 4.9-6.4-3.7-6.3-3.8.7-2.6 7.7-10.2 9.5-11.3z" class="st3"/><path id="path128" d="M104.2 99.5c1.7-1.2 4.6-3.6 7.6-2.5 1.5.6 1.1.7 1.7.5 6.3-1.4-.6.7.2 1.6 1.7 2.1-.5 8.1-11.6 15.6-7.7 5.6-6.6-3.3-6.5-3.3.3-2.7 6.9-10.7 8.6-11.9z" class="st3"/><path id="path130" d="M94 110.6c1.5-1.4 4.3-3.9 7.4-3 1.6.5 1.2.6 1.7.4 6.1-1.9-.5.8.3 1.6 1.8 1.9 0 8.1-10.5 16.3-7.5 6-6.8-2.8-6.8-2.9.2-2.7 6.2-11.1 7.9-12.4z" class="st3"/><path id="path132" d="M81.8 125.8c1.4-1.5 4-4.3 7.1-3.6 1.6.3 1.2.5 1.7.3 5.9-2.4-.4.8.5 1.6 2 1.8.7 8-9.1 17.1-6.9 6.6-7-2.2-7-2.3 0-2.8 5.4-11.6 6.8-13.1z" class="st3"/><path id="path134" d="M73.4 138.3c1.4-1.6 3.6-4.6 6.8-4.1 1.6.2 1.3.4 1.8.2 5.8-2.8-.4.8.6 1.5 2.1 1.7 1.2 8-7.9 17.7-6.4 7.1-7.2-1.8-7.1-1.8-.2-2.7 4.3-12 5.8-13.5z" class="st3"/><path id="path136" d="M65.8 151.2c1.3-1.6 3.4-4.8 6.6-4.5 1.6.1 1.3.3 1.8 0 5.5-3.2-.3.8.7 1.5 2.3 1.5 1.8 7.9-6.7 18.2-5.8 7.5-7.2-1.3-7.2-1.3-.6-2.7 3.6-12.2 4.8-13.9z" class="st3"/><path id="path138" d="M59.1 164.7c1.1-1.8 3-5 6.3-5 1.6 0 1.3.3 1.8-.1 5.3-3.5-.3.9.8 1.5 2.3 1.4 2.3 7.7-5.5 18.6-5.5 7.8-7.3-.8-7.3-.9-.7-2.6 2.7-12.4 3.9-14.1z" class="st3"/></g></g></g><path id="path140" d="M74.5 294.5c-1.3-9.5-5-18.2-5-28-.1-48.4 9.2-81.5 43.8-121.5 0 0-48.3 72.5-30.8 145.5l-8 4" class="st5"/><path id="path142" d="M245.1 47c-73.8 5.3-137.2 48.2-171 109.8l16.8-15.5c34-51.5 89.7-87.4 154.2-94.5" class="st5"/><g id="g144"><g id="g146"><g id="g148"><path id="path150" d="M244.1 56.9c2.7 0 7.6 0 9.6 2.8 1 1.4.5 1.2 1.2 1.5 7.4 2.7-1.2.2-1.2 1.4-.1 2.7-7.5 5.8-24.8 5.2-12.4-.1-3.6-6.6-3.5-6.6 2.7-2 16-4.5 18.7-4.3z" class="st3"/><path id="path152" d="M224.7 59.5c2.7-.2 7.6-.5 9.8 2 1.1 1.3.6 1.2 1.3 1.4 7.6 2.3-1.2.3-1.1 1.5.1 2.8-7 6.4-24.3 7.2-12.3.9-4.1-6.3-4.1-6.4 2.6-2.2 15.6-5.7 18.4-5.7z" class="st3"/><path id="path154" d="M205.5 63.6c2.7-.3 7.5-1.1 10 1.2 1.2 1.2.7 1.1 1.4 1.3 7.8 1.8-1.1.3-.9 1.6.4 2.8-6.5 6.9-23.6 9.1-12.2 1.9-4.7-6-4.6-6 2.2-2.4 15-6.9 17.7-7.2z" class="st3"/><path id="path156" d="M186.7 69.3c2.7-.6 7.4-1.8 10 .4 1.3 1.1.8 1.1 1.5 1.2 7.9 1.1-1.1.5-.8 1.6.6 2.8-5.9 7.4-22.7 11.1-12 2.9-5.2-5.6-5.1-5.6 2.1-2.6 14.4-8.2 17.1-8.7z" class="st3"/><path id="path158" d="M163.1 79.2c2.5-1 7.1-2.7 10-.7 1.4 1 .9 1 1.6 1 7.9.1-1 .6-.6 1.7.9 2.7-5.1 7.9-21.3 13.6-11.6 4.3-5.8-4.9-5.7-4.9 1.8-3 13.4-10 16-10.7z" class="st3"/><path id="path160" d="M145.8 88.5c2.4-1.2 6.9-3.4 9.9-1.6 1.5.8 1 .9 1.7.8 7.9-.6-1 .7-.5 1.8 1.1 2.6-4.3 8.3-20 15.5-11.1 5.4-6.2-4.3-6.1-4.4 1.5-3 12.4-11.1 15-12.1z" class="st3"/><path id="path162" d="M129.4 99.5c2.3-1.4 6.5-4 9.7-2.6 1.6.7 1.1.8 1.8.7 7.8-1.4-.9.8-.3 1.8 1.3 2.5-3.5 8.6-18.4 17.3-10.5 6.4-6.6-3.7-6.5-3.7 1.2-3.2 11.2-12.3 13.7-13.5z" class="st3"/><path id="path164" d="M114.2 112c2.2-1.6 6.1-4.6 9.4-3.5 1.7.5 1.2.7 1.8.5 7.6-2.1-.8.9-.1 1.8 1.6 2.3-2.7 8.9-16.6 19-9.9 7.4-6.9-3-6.9-3.1.9-3.2 10-13.3 12.4-14.7z" class="st3"/><path id="path166" d="M94.8 132.3c1.9-1.9 5.4-5.4 8.8-4.8 1.7.3 1.3.5 1.9.2 7.2-3.2-.7 1 .1 1.8 1.9 2.1-1.4 9.2-13.6 21.2-8.6 8.8-7.3-1.9-7.2-2 .3-3.3 7.9-14.6 10-16.4z" class="st3"/><path id="path168" d="M83 148.2c1.7-2.1 4.8-6 8.3-5.7 1.7.1 1.3.4 1.9 0 6.9-3.9-.6 1 .3 1.8 2.1 1.9-.4 9.3-11.3 22.5-7.7 9.7-7.5-1.1-7.4-1.2 0-3.4 6.3-15.5 8.2-17.4z" class="st3"/><path id="path170" d="M73 165.2c1.5-2.3 4.1-6.5 7.6-6.6 1.7-.1 1.3.2 1.9-.2 6.4-4.6-.5 1.1.5 1.8 2.3 1.6.6 9.3-8.9 23.6-6.6 10.4-7.5-.4-7.5-.5-.3-3.3 4.6-16 6.4-18.1z" class="st3"/><path id="path172" d="M64.8 183.2c1.3-2.4 3.4-6.9 6.9-7.3 1.7-.2 1.4.1 1.9-.4 5.9-5.2-.3 1.1.7 1.7 2.4 1.4 1.6 9.2-6.4 24.4-5.5 11-7.5.4-7.5.3-.8-3.3 2.9-16.4 4.4-18.7z" class="st3"/><path id="path174" d="M57 207.6c.9-2.6 2.6-7.2 5.9-8.2 1.7-.5 1.3-.1 1.8-.6 5.3-6-.3 1.2.9 1.6 2.6 1.1 2.8 8.9-3.2 25.1-3.9 11.7-7.4 1.4-7.4 1.3-1.1-3.3.9-16.7 2-19.2z" class="st3"/><path id="path176" d="M53.1 226.9c.7-2.6 1.9-7.4 5-8.7 1.6-.6 1.3-.2 1.7-.8 4.7-6.4-.1 1.2 1.1 1.5 2.7.8 3.7 8.6-.7 25.3-2.9 12-7.3 2-7.3 1.9-1.3-3-.6-16.6.2-19.2z" class="st3"/><path id="path178" d="M51.2 246.5c.5-2.7 1.2-7.6 4.2-9.1 1.5-.8 1.3-.3 1.7-.9 4.1-6.9 0 1.2 1.2 1.4 2.8.5 4.6 8.2 1.7 25.2-1.9 12.2-7.1 2.7-7.1 2.6-1.7-3-2.2-16.5-1.7-19.2z" class="st3"/><path id="path180" d="M51.1 266.2c.3-2.7.3-7.6 3.3-9.5 1.5-.9 1.3-.5 1.6-1.1 3.4-7.2.1 1.2 1.3 1.3 2.8.3 5.3 7.8 3.9 25-.6 12.3-6.8 3.3-6.8 3.2-1.8-2.8-3.7-16.2-3.3-18.9z" class="st3"/><path id="path182" d="M53.3 289.8c-.1-2.7-.5-7.6 2.3-9.8 1.4-1.1 1.2-.6 1.4-1.3 2.5-7.5.3 1.2 1.4 1.1 2.7 0 6.1 7.2 6.5 24.4.7 12.3-6.4 4-6.5 3.9-1.9-2.4-5.2-15.5-5.1-18.3z" class="st3"/><path id="path184" d="M57 309.2c-.3-2.7-1-7.6 1.5-10 1.3-1.2 1.2-.7 1.3-1.4 1.7-7.7.4 1.1 1.6 1 2.8-.3 6.7 6.6 8.8 23.7 1.7 12.2-6 4.6-6 4.5-2.7-2.3-6.9-15.1-7.2-17.8z" class="st3"/><path id="path186" d="M62.5 328.1c-.5-2.7-1.9-7.4.5-10 1.2-1.3 1.1-.8 1.2-1.5 1.2-7.9.5 1.1 1.6.8 2.7-.5 7.3 5.9 10.8 22.8 3 12-5.5 5.1-5.6 5-2.5-2.1-8.1-14.4-8.5-17.1z" class="st3"/><path id="path188" d="M69.7 346.4c-1-2.5-2.3-7.3-.4-10 1-1.4 1-.9 1-1.6.3-7.9.6 1 1.7.7 2.6-.8 7.7 5.3 12.9 21.7 3.8 11.8-5.1 5.6-5.1 5.5-2.8-1.8-9.4-13.6-10.1-16.3z" class="st3"/><path id="path190" d="M81.4 369.1c-1.2-2.4-3.2-6.9-1.6-9.9.9-1.5.9-1 .8-1.7-.6-7.9.7 1 1.8.5 2.5-1.1 8.3 4.3 15.4 20.1 5.2 11.2-4.4 6.2-4.5 6.1-2.9-1.6-10.9-12.5-11.9-15.1z" class="st3"/><path id="path192" d="M92.2 385.6c-1.3-2.4-3.8-6.6-2.5-9.7.7-1.6.8-1.1.7-1.8-1.1-7.9.7 1 1.8.3 2.5-1.3 8.7 3.5 17.1 18.6 6.3 10.6-3.8 6.5-3.8 6.4-3.1-1.2-12-11.4-13.3-13.8z" class="st3"/><path id="path194" d="M104.5 400.9c-1.6-2.2-4.5-6.1-3.4-9.5.6-1.7.7-1.2.5-1.8-2-7.7.9.8 1.8.2 2.3-1.5 9 2.8 18.7 17 7.3 10-3.2 6.8-3.3 6.8-3-1-12.9-10.3-14.3-12.7z" class="st3"/><path id="path196" d="M118.1 415.2c-1.8-2.1-4.9-5.9-4.2-9.2.4-1.7.6-1.2.3-1.9-2.7-7.4.9.7 1.8 0 2.2-1.7 9.2 1.9 20.2 15.2 8 9.5-2.6 7.1-2.6 7-3.3-.5-13.8-9-15.5-11.1z" class="st3"/></g></g></g><g id="g198"><g id="g200"><g id="g202"><path id="path204" d="M130.2 400.5c-1.2-1.8-3.6-4.9-2.5-7.9.6-1.5.7-1.1.6-1.7-1.5-6.5.7.6 1.7-.1 2.1-1.7 8.4 1 15.8 13 5.4 8.6-3.6 6.4-3.7 6.4-2.8-.7-10.7-7.9-11.9-9.7z" class="st3"/></g><g id="g206"><path id="path208" d="M111 377.9c-1.1-1.9-3.2-5.3-1.7-8.1.8-1.5.8-1 .8-1.6-.7-6.6.7.7 1.7.1 2.3-1.4 8.2 1.8 14.5 14.4 4.7 8.9-4.1 6.1-4.2 6.1-2.8-.9-10.1-8.9-11.1-10.9z" class="st3"/></g><g id="g210"><path id="path212" d="M94.4 353.3c-.8-2.1-2.6-5.6-.6-8.3 1-1.4 1-.9 1-1.5.2-6.7.6.8 1.6.3 2.5-1.1 7.8 2.9 12.6 16.1 3.7 9.3-4.8 5.6-4.8 5.6-2.7-1.3-9.1-10.1-9.8-12.2z" class="st3"/></g><g id="g214"><path id="path216" d="M81.4 326.4c-.5-2.1-1.6-6 .7-8.3 1.2-1.2 1.1-.8 1.2-1.3 1.3-6.5.4.9 1.6.5 2.7-.6 7 4.1 9.8 17.8 2.3 9.7-5.5 4.9-5.6 4.8-2.3-1.6-7.3-11.3-7.7-13.5z" class="st3"/></g><g id="g218"><path id="path220" d="M73.3 297.5c-.2-2.2-.4-6.2 2.3-8.1 1.4-.9 1.2-.5 1.4-1.1 2.5-6.1.3.9 1.4.8 2.7-.1 6 5.4 6.4 19.2.5 9.9-6.3 3.9-6.4 3.8-2-1.8-5.2-12.4-5.1-14.6z" class="st3"/></g><g id="g222"><path id="path224" d="M70 268.1c.1-2.2.2-6.2 3-7.8 1.4-.8 1.3-.4 1.5-.9 3-5.9.2.9 1.4 1 2.6.1 5.9 5.9 4.1 20.1-1.2 10-6.9 2.6-6.9 2.6-1.6-2.3-3.3-12.8-3.1-15z" class="st3"/></g><g id="g226"><path id="path228" d="M70.5 237.9c.6-2.2 1.7-6.1 4.9-6.9 1.6-.4 1.3-.1 1.7-.5 4.5-4.9-.1.9 1.1 1.3 2.6.9 3.8 6.9.1 20.1-2.3 9.7-7.2 1.9-7.1 1.8-1.6-2.5-1.5-13.6-.7-15.8z" class="st3"/></g><g id="g230"><path id="path232" d="M79.7 208.7c1.2-1.9 3.5-5.3 6.7-5.1 1.7.1 1.3.3 1.8 0 5.7-3.3-.4.9.6 1.5 2.3 1.7 1.4 7.8-6 19.1-4.9 8.5-7.4-.2-7.4-.3-.8-2.7 2.8-13.4 4.3-15.2z" class="st3"/></g><g id="g234"><path id="path236" d="M96.6 183.6c1.7-1.4 4.6-4.2 7.7-3.3 1.6.5 1.2.6 1.7.4 6.3-2-.5.8.3 1.7 1.8 2.1-.5 8.1-10.9 17.1-7.3 6.7-7-2.3-6.9-2.5.1-2.9 6.4-12 8.1-13.4z" class="st3"/></g></g></g><g id="g238"><g id="g240"><g id="g242"><path id="path244" d="M244 47.1c2.7-.1 7.7-.1 9.7 2.6 1 1.4.5 1.2 1.2 1.5 7.4 2.7-1.2.2-1.2 1.4-.1 2.8-7.4 5.7-24.6 5.8-12.3.5-3.9-6.4-3.8-6.4 2.6-2.2 15.9-5 18.7-4.9z" class="st3"/><path id="path246" d="M224.5 50.4c2.7-.4 7.6-.9 10 1.6 1.2 1.3.7 1.2 1.4 1.3 7.7 1.9-1.1.3-1 1.5.2 2.8-6.7 6.4-23.9 8.3-12.2 1.8-4.5-6-4.4-6 2.1-2.4 15.1-6.6 17.9-6.7z" class="st3"/><path id="path248" d="M205.4 55.7c2.6-.7 7.5-1.7 10.1.6 1.3 1.2.8 1.1 1.5 1.2 7.8 1.1-1.1.4-.9 1.6.5 2.7-6.1 7.1-22.9 10.7-12 3-5.1-5.5-5-5.5 2-2.7 14.5-8.2 17.2-8.6z" class="st3"/><path id="path250" d="M186.9 62.8c2.6-.9 7.3-2.4 10.1-.4 1.4 1 .9 1 1.6 1 7.9.3-1.1.6-.7 1.7.8 2.7-5.3 7.7-21.8 13-11.6 4.2-5.6-5-5.6-5 1.9-2.9 13.8-9.5 16.4-10.3z" class="st3"/><path id="path252" d="M164.2 74.8c2.5-1.1 6.9-3.3 9.9-1.7 1.5.9 1 .9 1.7.8 8-.6-1 .7-.5 1.8 1.1 2.6-4.2 8.4-19.9 15.7-11.1 5.5-6.3-4.3-6.2-4.3 1.6-3 12.4-11.2 15-12.3z" class="st3"/><path id="path254" d="M147.8 85.9c2.4-1.3 6.6-4 9.7-2.7 1.6.7 1.1.8 1.8.7 7.9-1.3-.9.8-.3 1.8 1.4 2.5-3.4 8.8-18.3 17.6-10.5 6.6-6.6-3.7-6.6-3.7 1.3-3.2 11.3-12.3 13.7-13.7z" class="st3"/><path id="path256" d="M132.6 98.6c2.2-1.6 6.2-4.6 9.4-3.6 1.7.5 1.2.7 1.9.5 7.7-2.1-.8.8-.1 1.8 1.6 2.3-2.5 9.1-16.6 19.2-9.8 7.5-6.9-3-6.9-3.1.9-3.2 10-13.3 12.3-14.8z" class="st3"/><path id="path258" d="M118.7 112.6c2.1-1.8 5.7-5.1 9-4.4 1.7.4 1.2.6 1.9.3 7.5-2.8-.8.9.1 1.8 1.8 2.2-1.7 9.3-14.8 20.6-9.1 8.4-7.2-2.4-7.1-2.5.6-3.2 8.7-14.1 10.9-15.8z" class="st3"/><path id="path260" d="M101.2 134.6c1.8-2 5-5.9 8.4-5.6 1.8.2 1.3.4 1.9.1 7-3.7-.6 1 .3 1.8 2.1 1.9-.4 9.4-11.9 22.4-8 9.5-7.5-1.5-7.4-1.5.1-3.4 6.8-15.3 8.7-17.2z" class="st3"/><path id="path262" d="M90.6 151.3c1.7-2.2 4.4-6.3 7.8-6.3 1.8 0 1.3.3 1.9-.1 6.7-4.4-.5 1.1.4 1.8 2.2 1.7.4 9.4-9.9 23.4-7.1 10.2-7.6-.8-7.5-.9 0-3.4 5.6-15.8 7.3-17.9z" class="st3"/><path id="path264" d="M81.6 168.9c1.5-2.3 3.8-6.7 7.2-7 1.8-.2 1.4.2 1.9-.3 6.2-5-.4 1.1.6 1.7 2.4 1.5 1.3 9.4-7.7 24.2-6.2 10.8-7.6-.1-7.5-.2-.4-3.3 4-16.1 5.5-18.4z" class="st3"/><path id="path266" d="M74.3 187.2c1.2-2.4 3.2-7 6.6-7.6 1.7-.3 1.4 0 1.9-.4 5.8-5.5-.3 1.2.7 1.7 2.5 1.3 2.1 9.2-5.5 24.8-5.2 11.3-7.6.6-7.5.5-.8-3.4 2.5-16.6 3.8-19z" class="st3"/><path id="path268" d="M67.3 211.9c.8-2.6 2.3-7.3 5.6-8.3 1.7-.5 1.3-.1 1.8-.7 4.9-6.2-.1 1.2 1 1.6 2.6 1 3 8.9-2.6 25.2-3.7 11.8-7.4 1.5-7.4 1.4-1.2-3.2.6-16.7 1.6-19.2z" class="st3"/><path id="path270" d="M64 231.3c.6-2.7 1.7-7.5 4.8-8.8 1.6-.7 1.3-.2 1.7-.8 4.3-6.6 0 1.2 1.1 1.5 2.7.7 3.9 8.5-.3 25.4-2.6 12.1-7.2 2.2-7.2 2.1-1.4-3.1-.9-16.7-.1-19.4z" class="st3"/><path id="path272" d="M62.4 251c.3-2.7 1-7.6 4-9.2 1.5-.8 1.3-.4 1.6-1 3.7-7 .1 1.2 1.2 1.4 2.8.5 4.6 8.2 2.2 25.3-1.5 12.3-7.1 2.9-7 2.8-1.6-3-2.6-16.6-2-19.3z" class="st3"/><path id="path274" d="M62.6 270.8c.2-2.7.4-7.7 3.2-9.6 1.4-1 1.3-.5 1.5-1.1 3-7.3.1 1.2 1.4 1.2 2.8.2 5.4 7.7 4.5 24.9-.3 12.4-6.7 3.5-6.7 3.4-2.1-2.6-4-16.1-3.9-18.8z" class="st3"/><path id="path276" d="M65.5 294.5c-.1-2.7-.6-7.7 2-9.9 1.3-1.1 1.2-.6 1.4-1.3 2.5-7.6.2 1.2 1.5 1.1 2.9-.1 6.3 7 7.4 24.3 1.3 12.3-6.2 4.3-6.2 4.2-2.4-2.5-6.1-15.6-6.1-18.4z" class="st3"/><path id="path278" d="M69.9 313.8c-.6-2.7-1.3-7.6 1.1-10 1.2-1.3 1.1-.7 1.3-1.4 1.5-7.8.4 1.1 1.6.9 2.7-.4 6.8 6.4 9.6 23.4 2.1 12.2-5.8 4.9-5.9 4.8-2.5-2.3-7.4-15-7.7-17.7z" class="st3"/><path id="path280" d="M76.2 332.5c-.6-2.7-2-7.4.1-10.1 1.1-1.4 1-.8 1.1-1.5 1-8 .4 1.1 1.7.8 2.8-.7 7.5 5.7 11.9 22.4 3.5 11.9-5.3 5.4-5.3 5.3-2.9-2-8.9-14.2-9.5-16.9z" class="st3"/><path id="path282" d="M84.2 350.6c-1-2.5-2.8-7.1-.9-10 1-1.5 1-.9 1-1.6 0-7.9.6 1 1.7.6 2.6-.9 8 4.9 14 21.2 4.6 11.5-4.8 5.9-4.8 5.8-2.9-1.9-10.2-13.3-11-16z" class="st3"/><path id="path284" d="M97.2 372.8c-1.3-2.4-3.7-6.7-2.1-9.8.8-1.6.9-1.1.8-1.8-1-7.9.7.9 1.8.4 2.5-1.2 8.5 3.9 16.5 19.3 6 10.8-4 6.4-4.1 6.4-3.1-1.5-11.8-12-12.9-14.5z" class="st3"/><path id="path286" d="M108.9 388.7c-1.4-2.3-4.2-6.4-3-9.6.6-1.6.7-1.1.6-1.8-1.7-7.7.8.9 1.8.2 2.4-1.5 8.9 3.1 18.3 17.6 6.9 10.3-3.4 6.8-3.4 6.7-3.3-1-12.8-10.8-14.3-13.1z" class="st3"/><path id="path288" d="M122.2 403.3c-1.7-2.2-5-5.8-4-9.2.5-1.7.6-1.2.4-1.9-2.4-7.6.9.8 1.8.1 2.2-1.7 9.1 2.2 19.8 15.8 8 9.4-2.7 7-2.8 7-3.1-.9-13.6-9.5-15.2-11.8z" class="st3"/><path id="path290" d="M136.8 416.7c-2-1.9-5.3-5.5-4.8-8.9.3-1.7.5-1.3.2-1.9-3.2-7.2 1 .7 1.8-.1 2-1.9 9.3 1.4 21.3 13.8 8.7 8.9-2 7.3-2.1 7.2-3.4-.3-14.6-8.1-16.4-10.1z" class="st3"/></g></g></g><g id="g292"><g id="g294"><g id="g296"><path id="path298" d="M291.6 29.8c-2.7-.7-7.7-1.2-9.5-4.2-.9-1.5-.4-1.3-1.1-1.6-7.7-3.7 1.3-.1 1.4-1.2.2-2.5 9.4-5.7 27.8.7 12.7 4.8 1.1 7.5 1.3 7.4-3.3.7-17.1-.7-19.9-1.1z" class="st3"/><path id="path300" d="M311.7 32.7c-2.7-.8-7.6-1.9-9.1-5.1-.8-1.6-.3-1.3-.9-1.7-7.4-4.1 1.3-.1 1.5-1.1.4-2.5 9.9-4.8 27.7 3.2 12.3 5.8.5 7.5.6 7.5-3.5.4-17.1-2.1-19.8-2.8z" class="st3"/><path id="path302" d="M331.4 37.4c-2.6-1-7.4-2.6-8.6-5.9-.6-1.6-.2-1.3-.8-1.8-7-4.7 1.3.1 1.6-1 .6-2.4 10.3-3.8 27.2 5.7 11.8 6.8-.2 7.5-.1 7.6-3.3 0-16.7-3.7-19.3-4.6z" class="st3"/><path id="path304" d="M350.6 43.8c-2.5-1.2-7.1-3.4-8.1-6.6-.5-1.7-.1-1.4-.6-1.8-6.5-5.4 1.3.2 1.7-.9.9-2.4 10.6-2.9 26.6 8 11.1 7.9-.9 7.5-.8 7.5-3.3-.2-16.3-5.1-18.8-6.2z" class="st3"/><path id="path306" d="M374.6 54.6c-2.3-1.6-6.7-4-7.3-7.5-.3-1.8.1-1.4-.4-1.9-5.9-6.1 1.3.3 1.8-.6 1.1-2.2 10.9-1.7 25.6 11 10 9.2-1.7 7.3-1.6 7.4-3.4-.6-15.7-7-18.1-8.4z" class="st3"/><path id="path308" d="M392.1 64.7c-2.2-1.7-6.4-4.6-6.6-8.1-.1-1.8.2-1.4-.2-2-5.4-6.5 1.2.4 1.8-.5 1.3-2.1 11-.7 24.5 13.3 9.2 10-2.3 7.1-2.3 7.2-3.3-.8-15-8.2-17.2-9.9z" class="st3"/><path id="path310" d="M408.7 76.4c-2-1.9-5.9-5.2-5.8-8.7 0-1.8.3-1.3-.1-1.9-4.7-7 1.2.6 1.9-.3 1.5-2 11 .3 23.2 15.4 8.4 10.7-3 6.9-2.9 7-3.3-1.2-14.3-9.6-16.3-11.5z" class="st3"/><path id="path312" d="M424.1 89.5c-1.9-2.1-5.3-5.7-5-9.2.2-1.8.4-1.3.1-1.9-4.1-7.4 1.1.7 1.9-.2 1.7-1.9 10.9 1.2 21.8 17.4 7.4 11.4-3.6 6.7-3.5 6.7-3.1-1.4-13.4-10.8-15.3-12.8z" class="st3"/><path id="path314" d="M444 110.4c-1.5-2.4-4.6-6.3-3.9-9.7.4-1.7.6-1.2.3-1.9-3-8 1 .8 1.9.1 1.9-1.7 10.7 2.5 19.5 19.9 5.8 12.3-4.4 6.2-4.3 6.3-2.8-2-11.9-12.5-13.5-14.7z" class="st3"/><path id="path316" d="M456.4 126.4c-1.3-2.5-4.1-6.7-3-10 .6-1.7.7-1.2.5-1.9-2.3-8.2.9.9 1.9.3 2-1.5 10.5 3.4 17.7 21.5 4.6 12.8-4.9 5.8-4.9 5.8-2.8-2-10.8-13.3-12.2-15.7z" class="st3"/><path id="path318" d="M467.3 143.5c-1-2.6-3.6-7-2.1-10.2.7-1.6.8-1.1.7-1.8-1.6-8.4.9 1 1.8.4 2.2-1.3 10.1 4.4 15.7 23 3.5 13.1-5.4 5.3-5.3 5.4-2.6-2.4-9.6-14.3-10.8-16.8z" class="st3"/><path id="path320" d="M476.6 161.4c-.9-2.7-2.9-7.3-1.2-10.4.9-1.6.9-1 .8-1.8-1-8.4.8 1 1.8.6 2.2-1.1 9.7 5.3 13.5 24.3 2.4 13.4-5.8 4.8-5.8 4.9-2.2-2.4-8.1-15-9.1-17.6z" class="st3"/><path id="path322" d="M486.3 185.9c-.5-2.8-1.9-7.6 0-10.4 1-1.5 1-.9 1-1.7.1-8.5.6 1.1 1.7.8 2.4-.8 9.1 6.3 10.7 25.7.7 13.6-6.4 4.1-6.4 4.2-1.9-2.8-6.3-15.9-7-18.6z" class="st3"/><path id="path324" d="M491.8 205.4c-.2-2.8-1.3-7.7.9-10.4 1.1-1.4 1.1-.8 1.2-1.6.9-8.5.5 1.2 1.6 1 2.5-.6 8.4 7.1 8.4 26.6-.4 13.6-6.7 3.5-6.7 3.6-1.7-3-4.9-16.5-5.4-19.2z" class="st3"/><path id="path326" d="M495.5 225.3c0-2.8-.7-7.8 1.8-10.3 1.3-1.3 1.2-.7 1.3-1.5 1.6-8.3.5 1.2 1.5 1.1 2.5-.4 7.7 7.8 5.9 27.2-1.5 13.5-6.9 2.9-6.9 3-1.3-3.1-3.3-16.8-3.6-19.5z" class="st3"/><path id="path328" d="M497.5 245.4c.1-2.8 0-7.8 2.8-10.1 1.4-1.1 1.2-.6 1.4-1.3 2.2-8.1.4 1.3 1.5 1.2 2.5-.2 7 8.5 3.5 27.6-2.6 13.3-7.2 2.3-7.2 2.4-1.2-3.2-2-17-2-19.8z" class="st3"/><path id="path330" d="M497.6 269.9c.4-2.8.8-7.8 3.7-9.7 1.5-1 1.3-.5 1.6-1.2 3.1-7.9.2 1.3 1.3 1.4 2.5.1 6.1 9.2.6 27.8-4 13-7.4 1.5-7.4 1.6-.8-3.3-.2-17.2.2-19.9z" class="st3"/><path id="path332" d="M495.6 290c.6-2.7 1.7-7.7 4.7-9.4 1.5-.9 1.3-.4 1.6-1 3.8-7.6.1 1.3 1.2 1.5 2.5.3 5.2 9.6-1.8 27.8-5.3 12.5-7.5.9-7.5.9-.5-3.3 1.3-17 1.8-19.8z" class="st3"/><path id="path334" d="M491.9 310c1-2.6 2.3-7.5 5.4-8.9 1.6-.7 1.3-.3 1.7-.9 4.5-7.2-.1 1.3 1.1 1.6 2.5.5 4.4 10.1-4.2 27.5-6.4 12-7.6.2-7.6.3-.2-3.5 2.9-17 3.6-19.6z" class="st3"/><path id="path336" d="M486.5 329.5c1.3-2.5 2.8-7.3 6.2-8.4 1.7-.6 1.4-.1 1.8-.7 5.2-6.7-.2 1.3.9 1.7 2.4.7 3.5 10.5-6.7 27-7.4 11.4-7.5-.5-7.5-.4 0-3.5 4.3-16.6 5.3-19.2z" class="st3"/><path id="path338" d="M476.9 353.9c1.5-2.4 3.8-6.9 7.1-7.6 1.7-.4 1.4 0 1.9-.5 5.9-6.1-.3 1.3.7 1.8 2.3 1 2.3 10.8-9.7 26.1-8.8 10.4-7.5-1.4-7.5-1.3.4-3.4 6.2-16 7.5-18.5z" class="st3"/><path id="path340" d="M467.6 371.9c1.8-2.2 4.3-6.6 7.8-7 1.8-.2 1.4.1 1.9-.3 6.5-5.5-.5 1.2.6 1.8 2.2 1.2 1.3 11-12 25.1-9.6 9.7-7.3-2-7.3-1.9.6-3.3 7.5-15.3 9-17.7z" class="st3"/><path id="path342" d="M456.8 389.1c1.8-2.1 4.8-6.2 8.3-6.3 1.8 0 1.3.3 2-.2 6.8-5-.5 1.2.4 1.9 2.1 1.4.3 11-14.2 23.9-10.3 8.8-7-2.6-7.1-2.5 1-3.3 8.8-14.7 10.6-16.8z" class="st3"/><path id="path344" d="M444.5 405.1c2-2 5.4-5.7 8.9-5.5 1.8.1 1.3.4 1.9 0 7.2-4.5-.6 1.1.2 1.9 1.9 1.5-.7 10.9-16.3 22.6-11 8-6.8-3.2-6.9-3.2 1.4-3.1 10.2-13.8 12.2-15.8z" class="st3"/></g></g></g><path id="path3409_2_" d="M432.7 326.7c54.8-61.6 1.1-120.3 1.1-120.3s32.7 68.2-4.7 102.1l3.6 18.2z" class="st4"/><path id="path347" d="M383 401.5s33.5-32.5 22.8-57.5-32.1-8.5-32.1-8.5 26.3 5 23.7 23.5c-2.8 20-23.7 35-23.7 35l9.3 7.5z" class="st5"/><g id="g349"><g id="g351"><g id="g353"><path id="path355" d="M478.2 194.1c-.3-2-1.2-5.4 1.1-7.7 1.2-1.2 1.1-.8 1.2-1.3 1.2-6.3.5.8 1.6.5 2.4-.8 7.7 4.2 8 18.1-.1 9.8-6.5 3.4-6.5 3.5-1.7-1.9-5.1-11.1-5.4-13.1z" class="st3"/><path id="path357" d="M482 208c-.1-2-.7-5.5 1.7-7.6 1.2-1.1 1.1-.7 1.3-1.2 1.6-6.2.4.8 1.5.6 2.5-.7 7.5 4.7 6.8 18.6-.6 9.8-6.7 2.9-6.7 3-1.7-2-4.4-11.5-4.6-13.4z" class="st3"/><path id="path359" d="M484.8 222c0-2-.3-5.6 2.2-7.5 1.3-1 1.2-.6 1.3-1.1 1.9-6.1.4.9 1.5.7 2.4-.5 7.2 5.2 5.5 19.1-1.3 9.7-6.9 2.5-6.9 2.6-1.6-2.2-3.4-11.8-3.6-13.8z" class="st3"/><path id="path361" d="M486.8 236.2c.1-2-.1-5.6 2.6-7.3 1.4-.9 1.2-.5 1.4-1 2.5-6 .3.9 1.4.8 2.6-.3 6.7 5.6 4.3 19.4-2 9.6-7.1 2-7.1 2.1-1.2-2.2-2.8-12-2.6-14z" class="st3"/><path id="path363" d="M487.8 254.9c.3-2 .5-5.5 3.3-7.1 1.5-.8 1.3-.4 1.5-.9 2.7-5.7.3.9 1.4.9 2.5-.1 6.3 6.2 2.5 19.7-2.7 9.4-7.1 1.4-7.2 1.5-1.3-2.4-1.6-12.2-1.5-14.1z" class="st3"/><path id="path365" d="M487.6 269.2c.4-2 .8-5.5 3.7-6.8 1.5-.7 1.3-.3 1.6-.8 3.3-5.5.1.9 1.3 1 2.6.1 5.8 6.6 1.3 19.8-3.5 9.2-7.3.9-7.3 1-1.1-2.4-1-12.3-.6-14.2z" class="st3"/><path id="path367" d="M486.4 283.5c.7-1.9 1.1-5.4 4.1-6.6 1.5-.6 1.3-.2 1.6-.7 3.6-5.3.1.9 1.3 1.1 2.6.3 5.4 6.9 0 19.8-4 8.9-7.3.4-7.4.5-.8-2.4-.2-12.2.4-14.1z" class="st3"/><path id="path369" d="M484.2 297.7c.7-1.9 1.7-5.3 4.6-6.3 1.6-.5 1.3-.2 1.6-.6 3.9-5.1 0 .9 1.2 1.2 2.6.4 4.9 7.3-1.4 19.8-4.5 8.7-7.3 0-7.4 0-.6-2.5.8-12.2 1.4-14.1z" class="st3"/><path id="path371" d="M479.5 317.5c1-1.8 2-5.2 5.2-5.8 1.6-.3 1.3 0 1.7-.4 4.4-4.7-.1.9 1.1 1.3 2.6.7 4.2 7.7-3.3 19.6-5.4 8.2-7.3-.7-7.3-.7-.5-2.6 1.7-12.2 2.6-14z" class="st3"/><path id="path373" d="M475 331.2c1-1.7 2.5-5 5.6-5.4 1.6-.2 1.3.1 1.7-.3 4.7-4.4-.1.9 1 1.3 2.5.8 3.6 8-4.6 19.3-5.8 7.8-7.2-1.2-7.3-1.2-.2-2.6 2.8-11.9 3.6-13.7z" class="st3"/><path id="path375" d="M469.7 344.5c1.1-1.7 2.7-4.8 6-5 1.6-.1 1.3.1 1.8-.2 4.9-4.1-.1.9.9 1.4 2.3.9 3.2 8.3-5.9 18.9-6.4 7.4-7.1-1.7-7.1-1.6-.4-2.7 3.4-11.8 4.3-13.5z" class="st3"/><path id="path377" d="M463.5 357.4c1.1-1.6 3-4.7 6.2-4.7 1.6 0 1.3.2 1.8-.1 5.3-3.7-.3.9.8 1.4 2.3 1.2 2.5 8.4-7.1 18.5-7 6.9-7-2.2-7.1-2.1.1-2.5 4.2-11.4 5.4-13z" class="st3"/><path id="path379" d="M454.2 373.5c1.3-1.5 3.5-4.4 6.7-4.1 1.6.1 1.3.3 1.7.1 5.5-3.3-.3.9.7 1.5 2.1 1.3 1.8 8.6-8.8 17.8-7.4 6.3-6.7-2.8-6.8-2.7.2-2.6 5.3-11 6.5-12.6z" class="st3"/><path id="path381" d="M446.1 385.4c1.4-1.4 3.7-4.2 6.9-3.7 1.6.3 1.3.4 1.8.2 5.8-2.8-.4.8.5 1.5 2.1 1.5 1.2 8.7-9.8 17.2-8 5.7-6.6-3.3-6.7-3.2.4-2.5 5.9-10.6 7.3-12z" class="st3"/><path id="path383" d="M437.2 396.6c1.6-1.2 4-3.9 7.1-3.2 1.6.4 1.2.5 1.7.3 6-2.4-.4.8.4 1.6 2 1.7.7 8.8-11 16.5-8.3 5.3-6.4-3.7-6.4-3.6.7-2.5 6.7-10.3 8.2-11.6z" class="st3"/><path id="path385" d="M427.5 407.2c1.6-1.2 4.3-3.5 7.3-2.7 1.6.5 1.2.6 1.7.4 6-2.1-.5.8.4 1.6 1.9 1.8 0 8.8-12.1 15.7-8.5 4.8-6.1-4.1-6.2-4 .8-2.4 7.4-9.7 8.9-11z" class="st3"/></g><g id="g387"><path id="path389" d="M288.9 43.7c-1.9-.4-5.5-.9-6.8-3.8-.7-1.5-.3-1.3-.8-1.6-5.5-3.5.9-.1 1-1.3.1-2.6 6.7-5.7 19.8-.9 9.1 3.7.8 7.3.9 7.3-2.4 1-12.2.8-14.1.3z" class="st3"/><path id="path391" d="M303.1 45.2c-1.9-.7-5.4-1.3-6.5-4.3-.6-1.5-.2-1.3-.7-1.6-5.2-3.7.9-.1 1.1-1.2.3-2.6 7.1-5.3 19.8.5 8.9 4.1.3 7.3.4 7.4-2.4.7-12.2-.2-14.1-.8z" class="st3"/><path id="path393" d="M317.2 47.7c-1.9-.7-5.3-1.7-6.2-4.8-.4-1.6-.1-1.3-.6-1.7-5-4 .9 0 1.2-1.2.5-2.4 7.4-4.8 19.8 1.9 8.5 4.8-.2 7.3-.1 7.3-2.5.9-12.2-.9-14.1-1.5z" class="st3"/><path id="path395" d="M331.2 51.1c-1.8-.8-5.2-2-5.9-5.1-.3-1.6 0-1.3-.4-1.7-4.7-4.5.9.1 1.3-1.1.7-2.5 7.7-4.2 19.6 3.1 8.2 5.4-.7 7.3-.6 7.4-2.6.4-12.2-1.7-14-2.6z" class="st3"/><path id="path397" d="M348.9 56.9c-1.7-1-5-2.5-5.4-5.7-.2-1.6.1-1.3-.3-1.8-4.3-4.7.9.1 1.3-.9.9-2.4 8-3.5 19.3 4.8 7.7 6.1-1.3 7.2-1.3 7.3-2.6.4-11.9-2.8-13.6-3.7z" class="st3"/><path id="path399" d="M362.1 62.4c-1.6-1.2-4.8-2.7-5-6-.1-1.6.2-1.3-.2-1.8-4-5.1.9.2 1.4-.9 1-2.4 8.3-3 18.9 6.1 7.3 6.5-1.8 7.1-1.7 7.2-2.6.2-11.7-3.5-13.4-4.6z" class="st3"/><path id="path401" d="M374.9 68.8c-1.6-1.2-4.6-3.2-4.6-6.4 0-1.6.2-1.3-.1-1.8-3.6-5.2.9.2 1.5-.8 1.2-2.3 8.5-2.4 18.4 7.4 6.8 7-2.3 7-2.2 7-2.6.2-11.3-4.3-13-5.4z" class="st3"/><path id="path403" d="M387.4 76c-1.5-1.3-4.4-3.4-4.2-6.6.1-1.6.3-1.3.1-1.8-3.2-5.6.9.3 1.5-.7 1.3-2.2 8.6-1.9 17.9 8.6 6.3 7.5-2.8 6.8-2.7 6.9-2.6-.2-11.2-5-12.6-6.4z" class="st3"/><path id="path405" d="M404.1 87.7c-1.4-1.4-4.1-3.8-3.5-6.9.3-1.6.5-1.2.2-1.8-2.7-5.9.8.4 1.6-.5 1.5-2.1 8.7-1.1 17 10.2 5.6 8-3.4 6.5-3.3 6.6-2.6-.5-10.7-6.1-12-7.6z" class="st3"/><path id="path407" d="M415.1 96.9c-1.3-1.6-3.7-4.1-3-7.2.4-1.6.5-1.2.3-1.7-2.3-6 .8.5 1.6-.4 1.7-2 8.8-.5 16.3 11.4 5.2 8.3-3.8 6.3-3.7 6.3-2.6-.7-10.1-7-11.5-8.4z" class="st3"/><path id="path409" d="M425.6 106.7c-1.2-1.6-3.5-4.3-2.5-7.4.5-1.6.6-1.2.5-1.7-2-6.1.8.5 1.6-.3 1.8-1.8 8.8.1 15.5 12.4 4.4 8.8-4.2 6-4.2 6.1-2.5-.8-9.7-7.5-10.9-9.1z" class="st3"/><path id="path411" d="M435.3 117.2c-1-1.7-3.2-4.5-2.1-7.5.6-1.5.7-1.1.6-1.7-1.5-6.3.7.6 1.6-.2 2-1.8 8.8.7 14.6 13.4 4 8.9-4.6 5.7-4.5 5.8-2.3-1-9.1-8.1-10.2-9.8z" class="st3"/><path id="path413" d="M446.9 131.8c-.9-1.8-2.9-4.8-1.4-7.6.7-1.5.8-1.1.7-1.6-.9-6.4.7.6 1.6-.1 2.1-1.6 8.7 1.4 13.4 14.6 3.1 9.3-5.1 5.3-5 5.4-2.2-1.2-8.4-8.9-9.3-10.7z" class="st3"/><path id="path415" d="M455 143.7c-.8-1.8-2.4-5-.9-7.8.8-1.4.9-1 .8-1.6-.6-6.4.7.7 1.7 0 2.2-1.4 8.6 2 12.4 15.5 2.6 9.4-5.4 4.9-5.4 5-2.3-1.2-7.7-9.3-8.6-11.1z" class="st3"/><path id="path417" d="M462.2 156.1c-.7-1.9-2.2-5.1-.4-7.8.9-1.4.9-.9.9-1.5-.1-6.4.6.7 1.6.2 2.2-1.3 8.4 2.6 11.4 16.3 1.8 9.6-5.8 4.6-5.7 4.7-2-1.6-7.1-10-7.8-11.9z" class="st3"/><path id="path419" d="M468.6 168.9c-.5-2-1.8-5.3.2-7.8 1-1.3 1-.9 1-1.4.3-6.4.6.7 1.6.3 2.4-1.1 8.2 3.1 10.2 17 1.3 9.7-6 4.2-6 4.3-2-1.7-6.4-10.5-7-12.4z" class="st3"/></g></g></g><path id="path421" d="M462.5 294.5c1.3-9.5 5-18.2 5-28 .1-48.4-9.2-81.5-43.8-121.5 0 0 48.3 72.5 30.8 145.5l8 4" class="st5"/><path id="path423" d="M291.9 47c73.8 5.3 137.2 48.2 171 109.8l-16.8-15.5c-34-51.5-89.7-87.4-154.2-94.5" class="st5"/><g id="g425"><g id="g427"><g id="g429"><path id="path431" d="M291.9 67c-2.5-.6-7.2-1.2-8.8-4.2-.8-1.5-.4-1.3-1-1.6-7.1-3.6 1.2-.1 1.3-1.3.2-2.6 8.8-5.6 25.9.3 11.9 4.4 1.1 7.4 1.2 7.4-3.2.9-16-.1-18.6-.6z" class="st3"/><path id="path433" d="M310.6 69.5c-2.5-.8-7.1-1.7-8.5-4.8-.7-1.6-.3-1.3-.9-1.7-6.9-4.1 1.2-.1 1.4-1.1.4-2.5 9.2-4.9 25.8 2.3 11.5 5.3.5 7.5.6 7.5-3.2.5-15.9-1.5-18.4-2.2z" class="st3"/><path id="path435" d="M329 73.5c-2.4-.9-6.9-2.3-8.1-5.5-.6-1.7-.2-1.3-.7-1.8-6.5-4.5 1.2 0 1.5-1 .6-2.4 9.5-4.2 25.5 4.4 11 6.3-.1 7.4 0 7.5-3.3.3-15.8-2.7-18.2-3.6z" class="st3"/><path id="path437" d="M347 78.9c-2.4-1.1-6.7-2.8-7.6-6.2-.5-1.7-.1-1.3-.6-1.8-6.1-5 1.2.2 1.6-.9.8-2.4 9.9-3.3 25 6.6 10.4 7.2-.8 7.4-.7 7.5-3.2 0-15.4-4.1-17.7-5.2z" class="st3"/><path id="path439" d="M369.5 88.3c-2.2-1.5-6.3-3.7-6.8-7-.3-1.7.1-1.3-.4-1.9-5.5-5.8 1.2.3 1.7-.7 1-2.3 10.3-2.4 24.1 9.4 9.5 8.4-1.7 7.3-1.6 7.4-3.2-.4-14.8-5.9-17-7.2z" class="st3"/><path id="path441" d="M385.9 97.3c-2-1.6-5.9-4.2-6.2-7.6-.1-1.7.2-1.3-.2-1.9-4.9-6.3 1.1.4 1.7-.6 1.2-2.2 10.5-1.4 23.2 11.6 8.7 9.2-2.4 7.1-2.3 7.2-3-.8-14-7.3-16.2-8.7z" class="st3"/><path id="path443" d="M401.5 107.7c-1.9-1.8-5.5-4.8-5.4-8.1 0-1.7.3-1.3-.1-1.9-4.3-6.7 1.1.5 1.8-.4 1.4-2.1 10.6-.4 22 13.7 7.8 10-3 6.8-3 6.9-3-1-13.3-8.6-15.3-10.2z" class="st3"/><path id="path445" d="M416 119.6c-1.7-2-5-5.3-4.6-8.6.2-1.7.5-1.3.1-1.9-3.7-7.1 1 .6 1.8-.2 1.6-1.9 10.6.6 20.5 15.9 6.7 10.7-3.7 6.5-3.7 6.6-2.8-1.4-12.3-10.1-14.1-11.8z" class="st3"/><path id="path447" d="M434.4 138.8c-1.3-2.2-4.2-5.9-3.3-9.2.5-1.7.6-1.2.4-1.9-2.6-7.6.9.8 1.8 0 1.8-1.7 10.4 2.1 18 18.7 5 11.6-4.6 5.9-4.6 6-2.6-1.7-10.8-11.5-12.3-13.6z" class="st3"/><path id="path449" d="M445.5 153.8c-1.1-2.3-3.5-6.3-2.3-9.5.6-1.6.7-1.1.6-1.8-1.8-7.8.8.9 1.8.2 2-1.5 10.1 3.2 16 20.4 3.8 12.1-5.2 5.4-5.2 5.5-2.5-1.9-9.6-12.6-10.9-14.8z" class="st3"/><path id="path451" d="M455 169.9c-.9-2.4-2.8-6.7-1.3-9.7.8-1.5.9-1 .8-1.7-1-7.9.8.9 1.8.4 2.2-1.3 9.7 4.2 13.7 22 2.5 12.4-5.8 4.8-5.7 4.9-2.4-2.2-8.2-13.6-9.3-15.9z" class="st3"/><path id="path453" d="M462.7 186.9c-.6-2.5-2.1-6.9-.3-9.7.9-1.5 1-.9 1-1.6-.2-8 .7 1 1.7.6 2.3-1 9.2 5.2 11.4 23.3 1.2 12.6-6.2 4.2-6.2 4.3-2.1-2.6-6.7-14.5-7.6-16.9z" class="st3"/><path id="path455" d="M470.1 210c-.3-2.6-1.3-7.1 1-9.7 1.2-1.3 1.1-.8 1.2-1.5.8-7.9.6 1.1 1.6.8 2.4-.7 8.4 6.4 8.2 24.6-.5 12.7-6.7 3.3-6.7 3.4-1.7-2.6-4.8-15-5.3-17.6z" class="st3"/><path id="path457" d="M473.8 228.4c-.1-2.6-.6-7.2 1.9-9.6 1.3-1.2 1.2-.7 1.3-1.4 1.5-7.8.5 1.1 1.5 1 2.5-.4 7.7 7.2 5.8 25.3-1.6 12.6-6.9 2.7-6.9 2.8-1.5-2.9-3.5-15.5-3.6-18.1z" class="st3"/><path id="path459" d="M475.6 247.1c.1-2.6.1-7.3 2.8-9.4 1.4-1.1 1.2-.6 1.4-1.2 2.2-7.6.3 1.2 1.4 1.1 2.5-.2 6.9 7.9 3.3 25.7-2.6 12.4-7.2 2.1-7.2 2.2-1-3.1-1.8-15.9-1.7-18.4z" class="st3"/><path id="path461" d="M475.7 265.8c.4-2.6.9-7.2 3.7-9.1 1.4-.9 1.3-.5 1.5-1.1 3-7.4.2 1.2 1.4 1.3 2.5 0 6.2 8.5 1.1 25.9-4 12.1-7.4 1.4-7.4 1.5-1-3.1-.5-15.9-.3-18.5z" class="st3"/><path id="path463" d="M473.6 288.4c.7-2.5 1.7-7.1 4.6-8.6 1.5-.8 1.3-.3 1.6-.9 3.8-7 .1 1.2 1.2 1.4 2.5.3 5.3 9.1-1.7 25.8-5.2 11.6-7.5.6-7.4.7-.7-3.2 1.2-15.9 1.7-18.4z" class="st3"/><path id="path465" d="M470.1 306.8c.9-2.4 2.1-6.9 5.3-8.2 1.6-.6 1.3-.2 1.7-.8 4.5-6.6 0 1.2 1.1 1.5 2.5.5 4.4 9.5-4 25.6-6.1 11.1-7.5-.1-7.5 0-.3-3.1 2.5-15.7 3.4-18.1z" class="st3"/><path id="path467" d="M464.8 324.8c1.1-2.4 3-6.6 6.1-7.6 1.7-.5 1.3-.1 1.8-.6 5-6.2-.2 1.2 1 1.6 2.4.7 3.5 9.9-6.3 25.1-7.3 10.4-7.5-.8-7.5-.7-.1-3.3 4-15.4 4.9-17.8z" class="st3"/><path id="path469" d="M458 342.3c1.5-2.2 3.3-6.5 6.7-7.1 1.7-.3 1.4 0 1.9-.5 5.7-5.7-.3 1.2.8 1.7 2.4 1 2.7 10.2-8.6 24.4-7.9 9.9-7.3-1.4-7.4-1.3.3-3.2 5.4-15 6.6-17.2z" class="st3"/><path id="path471" d="M446.8 363.9c1.7-2 4.1-6 7.5-6.2 1.7-.1 1.3.2 1.9-.2 6.3-5-.4 1.1.6 1.7 2.2 1.3 1.4 10.4-11.4 23.2-9.1 8.8-7.1-2.2-7.2-2.2.7-3.1 7.1-14.2 8.6-16.3z" class="st3"/><path id="path473" d="M436.5 379.6c1.7-1.9 4.6-5.6 8.1-5.5 1.8 0 1.3.3 1.9-.1 6.5-4.5-.4 1.1.4 1.8 2 1.4.4 10.4-13.5 22.1-9.9 7.9-6.9-2.9-7-2.9 1-3 8.4-13.5 10.1-15.4z" class="st3"/><path id="path475" d="M424.8 394.2c2-1.7 5.2-5.1 8.5-4.7 1.7.2 1.3.4 1.9.1 7-3.8-.6 1 .3 1.8 2 1.6-.5 10.5-15.4 20.8-10.6 6.9-6.6-3.5-6.7-3.4 1.2-3 9.6-12.7 11.4-14.6z" class="st3"/><path id="path477" d="M411.9 407.8c2.1-1.5 5.5-4.7 8.9-4 1.7.4 1.2.5 1.9.3 7.4-3.1-.7 1 .1 1.8 1.8 1.8-1.4 10.4-17.2 19.3-11.1 6.1-6.3-4.1-6.3-4 1.4-2.8 10.5-11.8 12.6-13.4z" class="st3"/></g></g></g><g id="g479"><g id="g481"><g id="g483"><path id="path485" d="M399.4 393.5c1.6-1.3 4.4-3.9 7.5-3.1 1.6.4 1.2.6 1.8.4 6.2-2.3-.5.9.3 1.6 1.9 1.8-.1 8.9-12.4 16.7-8.6 5.4-6.4-3.7-6.4-3.7.8-2.6 7.5-10.6 9.2-11.9z" class="st3"/></g><g id="g487"><path id="path489" d="M417.9 371.7c1.5-1.5 4-4.3 7.2-3.8 1.6.2 1.2.4 1.8.2 5.9-3-.4.9.5 1.6 2 1.5.8 8.9-10.8 17.8-8.2 6.1-6.6-3.2-6.7-3.2.5-2.6 6.5-11.1 8-12.6z" class="st3"/></g><g id="g491"><path id="path493" d="M433.8 348.2c1.3-1.7 3.5-4.7 6.6-4.7 1.6 0 1.3.3 1.8-.1 5.5-3.8-.3.9.7 1.5 2.3 1.2 2 8.8-8.5 19.1-7.6 6.9-7-2.5-7-2.4.2-2.7 5.2-11.8 6.4-13.4z" class="st3"/></g><g id="g495"><path id="path497" d="M446.1 322.7c1.1-1.8 2.6-5.2 5.8-5.7 1.6-.3 1.3 0 1.7-.4 4.8-4.6-.1 1 1 1.4 2.4.8 3.6 8.5-5.4 20.2-6.5 8-7.2-1.5-7.3-1.4-.2-2.6 3.3-12.2 4.2-14.1z" class="st3"/></g><g id="g499"><path id="path501" d="M453.7 295.7c.8-2 1.6-5.6 4.6-6.7 1.5-.6 1.3-.2 1.6-.7 3.9-5.5 0 1 1.2 1.2 2.5.3 5.2 7.7-1.6 20.9-5 9-7.3-.2-7.3-.1-.8-2.6 1-12.6 1.5-14.6z" class="st3"/></g><g id="g503"><path id="path505" d="M456.8 267.3c.5-2.1 1-5.8 3.9-7.1 1.5-.7 1.3-.3 1.6-.8 3.3-5.8.1 1 1.3 1.1 2.6.1 5.5 7.1.9 20.7-3.3 9.6-7.3 1.2-7.3 1.3-1.1-2.7-.8-13.2-.4-15.2z" class="st3"/></g><g id="g507"><path id="path509" d="M456.4 239.4c0-2-.3-5.6 2.1-7.7 1.3-1.1 1.2-.6 1.3-1.2 1.6-6.5.4.9 1.5.7 2.4-.7 7.7 5.7 4.9 20.5-2.3 10.1-7.1 1.9-7.1 2-1.2-2.4-2.6-12.3-2.7-14.3z" class="st3"/></g><g id="g511"><path id="path513" d="M448.2 213.2c-.6-2-2.1-5.3-.4-8 .9-1.4.9-1 .9-1.5-.4-6.7.6.7 1.7.2 2.1-1.3 9.1 3 11 18.1.7 10.4-6.3 3.8-6.2 4-1.9-1.9-6.2-10.9-7-12.8z" class="st3"/></g><g id="g515"><path id="path517" d="M432.7 190.3c-1.1-1.7-3.4-4.7-2.3-7.7.5-1.6.7-1.1.5-1.7-1.8-6.5.8.6 1.7-.2 1.8-1.7 9.3.7 15.2 14.5 3.8 9.7-4.9 5.5-4.8 5.6-2.4-1.3-9.1-8.8-10.3-10.5z" class="st3"/></g></g></g><g id="g519"><g id="g521"><g id="g523"><path id="path525" d="M291.8 57.2c-2.5-.7-7.1-1.3-8.8-4.3-.8-1.5-.4-1.3-1-1.6-7.1-3.7 1.2-.1 1.4-1.2.2-2.5 9-5.7 26 1 11.7 5 .7 7.5.8 7.5-3.1.5-15.8-.9-18.4-1.4z" class="st3"/><path id="path527" d="M310.3 60.3c-2.4-1-7-2-8.3-5.2-.7-1.6-.2-1.3-.8-1.7-6.7-4.4 1.2 0 1.5-1.1.4-2.5 9.5-4.7 25.8 3.6 11.1 6.2 0 7.5.1 7.6-3.3.3-15.8-2.4-18.3-3.2z" class="st3"/><path id="path529" d="M328.4 65.3c-2.3-1.2-6.7-2.7-7.7-6-.5-1.7-.1-1.4-.6-1.8-6.3-5 1.2.1 1.6-.9.7-2.4 9.9-3.7 25.3 6.2 10.5 7.3-.8 7.5-.7 7.5-3.3 0-15.5-4-17.9-5z" class="st3"/><path id="path531" d="M345.9 72.2c-2.2-1.4-6.4-3.4-7.1-6.8-.3-1.7 0-1.4-.5-1.9-5.7-5.6 1.2.3 1.7-.8.9-2.3 10.3-2.7 24.5 8.7 9.7 8.3-1.5 7.4-1.4 7.4-3.2-.3-14.9-5.4-17.2-6.6z" class="st3"/><path id="path533" d="M367.5 83.5c-2.1-1.6-5.9-4.2-6.1-7.6-.1-1.7.2-1.3-.2-1.9-5-6.2 1.1.4 1.8-.6 1.2-2.1 10.4-1.2 23.1 11.8 8.6 9.4-2.4 7.1-2.3 7.1-3.2-.6-14.2-7.3-16.3-8.8z" class="st3"/><path id="path535" d="M383 94.1c-1.9-1.8-5.5-4.7-5.4-8.2 0-1.7.3-1.3-.1-1.9-4.4-6.6 1.1.5 1.8-.4 1.4-2 10.5-.2 21.9 14 7.7 10.1-3.1 6.8-3 6.9-2.9-1-13.2-8.7-15.2-10.4z" class="st3"/><path id="path537" d="M397.5 106.1c-1.7-1.9-5.1-5.2-4.6-8.6.2-1.7.5-1.3.1-1.9-3.8-7 1.1.6 1.8-.2 1.6-1.9 10.5.8 20.5 16 6.7 10.8-3.7 6.5-3.6 6.6-2.9-1.4-12.4-10-14.2-11.9z" class="st3"/><path id="path539" d="M410.8 119.4c-1.5-2.1-4.6-5.7-3.8-9 .4-1.7.6-1.2.3-1.9-3.1-7.3 1 .7 1.8 0 1.8-1.7 10.3 1.7 18.9 17.8 5.7 11.4-4.3 6.2-4.2 6.2-2.7-1.6-11.4-11-13-13.1z" class="st3"/><path id="path541" d="M427.5 140.4c-1.3-2.3-3.7-6.3-2.6-9.5.6-1.6.7-1.1.5-1.8-2.1-7.7.9.8 1.8.2 2-1.5 10 3.1 16.5 20.1 4.2 12-5 5.5-4.9 5.6-2.6-1.9-10-12.4-11.3-14.6z" class="st3"/><path id="path543" d="M437.5 156.3c-1.1-2.4-3.2-6.6-1.7-9.7.7-1.6.8-1.1.7-1.8-1.4-7.9.8.9 1.8.4 2.1-1.3 9.7 4 14.6 21.5 3.1 12.3-5.4 5.1-5.4 5.2-2.5-2.1-8.9-13.3-10-15.6z" class="st3"/><path id="path545" d="M446.1 173.1c-.8-2.5-2.5-6.8-.8-9.8.9-1.5.9-1 .9-1.7-.6-7.9.7 1 1.8.5 2.2-1.1 9.3 4.8 12.6 22.7 2 12.6-5.9 4.5-5.9 4.6-2.3-2.2-7.7-13.9-8.6-16.3z" class="st3"/><path id="path547" d="M453.1 190.6c-.6-2.5-1.9-7 .1-9.8 1-1.4 1-.9 1-1.6.1-8 .6 1 1.7.7 2.3-.9 8.8 5.7 10.4 23.8.8 12.7-6.3 4-6.3 4.1-1.9-2.6-6.3-14.7-6.9-17.2z" class="st3"/><path id="path549" d="M459.7 214.1c-.2-2.6-1-7.2 1.2-9.7 1.2-1.3 1.1-.8 1.2-1.5 1.2-7.9.5 1.1 1.6.9 2.4-.6 8.2 6.6 7.6 24.8-.8 12.7-6.8 3.2-6.8 3.3-1.5-2.7-4.4-15.3-4.8-17.8z" class="st3"/><path id="path551" d="M462.9 232.6c.1-2.6-.4-7.3 2.1-9.6 1.3-1.2 1.2-.7 1.3-1.4 1.9-7.8.4 1.2 1.5 1 2.5-.4 7.6 7.4 5.3 25.4-2 12.6-7.1 2.6-7.1 2.7-1.2-2.8-2.9-15.5-3.1-18.1z" class="st3"/><path id="path553" d="M464.4 251.4c.3-2.6.2-7.3 3-9.3 1.4-1 1.2-.6 1.5-1.2 2.6-7.6.3 1.2 1.4 1.2 2.5-.2 6.9 8 2.9 25.8-3 12.3-7.2 1.9-7.2 2-1.3-3.1-1.6-15.9-1.6-18.5z" class="st3"/><path id="path555" d="M464.2 270.2c.4-2.6.8-7.2 3.8-9 1.5-.9 1.3-.4 1.6-1.1 3.3-7.3.2 1.2 1.3 1.3 2.5.1 6 8.6.5 26-4.2 12-7.4 1.2-7.4 1.3-.8-3.1-.3-16 .2-18.5z" class="st3"/><path id="path557" d="M461.4 292.7c.7-2.5 1.8-7.1 4.9-8.5 1.6-.7 1.3-.3 1.7-.9 3.8-6.9.1 1.2 1.2 1.4 2.4.3 4.9 9.3-2.6 25.9-5.7 11.4-7.5.3-7.6.4-.4-3.1 1.8-15.8 2.4-18.3z" class="st3"/><path id="path559" d="M457.2 311c1.1-2.4 2.4-6.9 5.6-8 1.6-.6 1.3-.2 1.8-.7 4.7-6.5-.1 1.2 1 1.5 2.5.6 4.2 9.7-5 25.5-6.5 10.9-7.4-.4-7.5-.3-.1-3.2 3.3-15.5 4.1-18z" class="st3"/><path id="path561" d="M451.3 328.9c1.2-2.3 3.1-6.6 6.4-7.4 1.7-.4 1.4 0 1.8-.5 5.1-6.1-.1 1.2.8 1.6 2.3.8 3.1 10-7.5 24.9-7.7 10.1-7.4-1.1-7.5-1 .4-3.3 4.9-15.3 6-17.6z" class="st3"/><path id="path563" d="M443.6 346c1.5-2.1 3.8-6.2 7.1-6.8 1.7-.3 1.3.1 1.9-.4 5.9-5.5-.3 1.2.7 1.7 2.3 1.1 2.2 10.3-9.8 24.1-8.6 9.4-7.2-1.8-7.3-1.7.4-3.2 6.2-14.6 7.4-16.9z" class="st3"/><path id="path565" d="M431.3 367.1c1.8-1.9 4.5-5.7 7.9-5.8 1.7 0 1.3.3 1.9-.1 6.5-4.7-.5 1.1.5 1.8 2.2 1.3.9 10.5-12.7 22.7-9.7 8.2-7-2.7-7-2.6.7-3.3 7.9-13.9 9.4-16z" class="st3"/><path id="path567" d="M420.2 382.2c1.8-1.9 4.9-5.4 8.3-5.1 1.8.1 1.3.4 1.9.1 6.9-4-.5 1.1.3 1.8 2 1.5-.2 10.5-14.9 21.3-10.4 7.3-6.7-3.4-6.8-3.3 1.3-2.9 9.3-13 11.2-14.8z" class="st3"/><path id="path569" d="M407.5 396.1c2-1.6 5.6-4.7 8.9-4.2 1.7.3 1.2.5 1.9.2 7.2-3.4-.7 1 .2 1.9 1.8 1.7-1.2 10.5-16.8 19.8-11.2 6.1-6.4-4-6.4-3.9 1.3-2.9 10.4-12 12.2-13.8z" class="st3"/><path id="path571" d="M393.7 408.8c2.3-1.3 5.8-4.3 9.2-3.4 1.7.5 1.2.6 1.9.4 7.6-2.6-.8.9 0 1.8 1.7 1.9-2.1 10.3-18.6 18.1-11.5 5.3-5.9-4.5-6-4.5 1.6-2.6 11.4-10.9 13.5-12.4z" class="st3"/></g></g></g><g id="Ruy_bang"><path id="path574" d="M522.9 223s-5.7 43.5-39.7 53.3c-41.5 11.9-65.8 39-68.5 63.3-1.8 16.2 1 35.8 1 35.8s-20.1-8.4 42.3-43.1c23.2-12.9 30-17.3 46.3-27.5s20.1-18 19.3-32c-1.1-17.3 4.5-21 5.3-32s-6-17.8-6-17.8z" class="st6"/><path id="path576" d="M511.5 212.9s56.3 26.8-54.1 71.3c-64.7 26-44.2 91.1-44.2 91.1" class="st7"/><path id="polygon578" d="m510.9 207.8 2.4 1.2-3.6 7.9-.5-.2-1.5-8.2z" class="st8"/><path id="path580" d="M508.6 208s34.7 11.5 4.7 39.8c0 0 0-15.4-4.7-39.8" class="st9"/><path id="path582" d="M14.1 223s5.7 43.5 39.7 53.3c41.5 11.9 65.8 39 68.5 63.3 1.8 16.2-1 35.8-1 35.8s20.1-8.4-42.3-43.1c-23.2-12.9-30-17.3-46.3-27.5-16.3-10.3-20.1-18-19.3-32 1.1-17.3-4.5-21-5.3-32-.6-11.1 6-17.8 6-17.8z" class="st6"/><path id="path584" d="M25.5 212.9s-56.3 26.8 54.1 71.3c64.7 26 44.2 91.1 44.2 91.1" class="st7"/><path id="polygon586" d="m26.1 207.8-2.4 1.2 3.6 7.9.5-.2 1.5-8.2z" class="st8"/><path id="path588" d="M28.4 208s-34.7 11.5-4.7 39.8c0-.1 0-15.4 4.7-39.8" class="st9"/></g><g id="g590"><g id="g592"><g id="g594"><path id="path596" d="M98.9 328.6c.6-2.2 1.7-6.2 4.8-7.1 1.6-.5 1.3-.1 1.7-.6 4.4-5.2-.1 1 1.1 1.3 2.6.8 4 7.3-.4 20.9-2.9 9.8-7.3 1.6-7.3 1.5-1.3-2.5-.7-13.8.1-16z" class="st3"/></g><g id="g598"><path id="path600" d="M106.6 298.6c1.1-2 3.1-5.8 6.4-5.9 1.7-.1 1.3.2 1.8-.1 5.6-3.9-.3.9.7 1.5 2.4 1.5 2.1 7.7-4.6 20.2-4.6 9.2-7.4.2-7.4.1-.9-2.7 1.8-13.8 3.1-15.8z" class="st3"/></g><g id="g602"><path id="path604" d="M123.8 271.6c1.9-1.5 5.8-3.9 8.7-2.3 1.5.8 1 .9 1.6.8 6.7-.1-.8.6-.2 1.7 1.2 2.8-2.1 6.7-12 16-6.9 7.3-7.2-1.9-7.1-2.1-.3-3 6.7-12.9 9-14.1z" class="st3"/></g><g id="g606"><path id="path608" d="M154.7 259.9c2.4.4 6.8 1.1 7.8 4.3.5 1.6.2 1.3.6 1.7 5.2 4.4-1-.1-1.3 1.1-.9 3-6.6 3.2-19.4 3.5-9.5 1.4-4.7-5.8-4.3-6 1.8-2.8 14.2-5.5 16.6-4.6z" class="st3"/></g><g id="g610"><path id="path612" d="M185.5 268.5c1.9 1.2 5.4 3.5 5.3 6.8-.1 1.7-.3 1.3 0 1.8 3.6 5.8-.9-.4-1.6.6-1.6 2.3-8 1.3-19.7-6.2-8.8-4.8 0-7.5.2-7.4 3-.8 14 3 15.8 4.4z" class="st3"/></g></g></g><g id="g614"><g id="g616"><g id="g618"><path id="path620" d="M428.1 330.2c0-2.1-.4-6 2.1-8 1.3-1 1.2-.6 1.3-1.2 1.8-6.6.4.9 1.5.8 2.5-.5 7.4 5.8 5.4 20.9-1.6 10.5-7 2.3-7 2.5-1.3-2.4-3.2-12.9-3.3-15z" class="st3"/></g><g id="g622"><path id="path624" d="M420.9 302.3c-.5-2.1-1.7-5.6.3-8.2 1-1.3 1-.9 1-1.5 0-6.9.6.8 1.7.4 2.2-1.2 8.8 4.1 9.7 19.4.3 10.6-6.4 3.6-6.4 3.7-2-2.1-5.7-11.8-6.3-13.8z" class="st3"/></g><g id="g626"><path id="path628" d="M406.3 279.1c-1.2-1.6-3.7-3.9-3.5-7 .1-1.6.3-1.3 0-1.8-3.9-5.7 1 .3 1.6-.6.9-2.3 11.1-1 17.1 14.1 3.4 10.3-5.1 5.2-5 5.4-2.2-1.6-8.8-8.8-10.2-10.1z" class="st3"/></g><g id="g630"><path id="path632" d="M382.5 270.1c-2-.2-5.5-.2-7.5-2.7-1-1.3-.6-1.2-1.2-1.4-6.6-1.8.9-.4.8-1.5-.8-2.1 7-8.7 22.3-1.2 9.3 6.2-1 7.2-.6 7.4-2.5.1-11.8-.7-13.8-.6z" class="st3"/></g><g id="g634"><path id="path636" d="M356 277.7c-2 .6-5.5 2.2-8.2.4-1.4-.9-1-.9-1.6-.9-6.9.3.8-.6.2-1.7-1.3-2.1 3.1-9.2 18.7-11.2 10.8-.7 3.7 6.3 4 6.3-1.9 1.8-11.1 6.2-13.1 7.1z" class="st3"/></g></g></g><path id="path3383_2_" d="M376 406.1c37.3-50.7 37.5-132.1-38.2-153.1 29.6 22 80.1 62.8 25.1 145.1l8.9 8.1h4.2z" class="st5"/><path id="path3383_1_" d="M161 406.1C123.7 355.4 123.5 274 199.2 253c-29.6 22-80.1 62.8-25.1 145.1l-8.9 8.1H161z" class="st5"/><g id="g640"><g id="g642"><path id="path644" d="M395 253s46.5 80-38.5 152" class="st10"/><g id="g646"><path id="path648" d="M373.2 396.4c1.3-1.6 3.6-4.8 2.5-7.8-.6-1.5-.7-1.1-.6-1.7 1.4-6.3-.7.6-1.7-.2-2.2-1.6-8 .9-15.7 12.1-5.6 8 3.3 6.6 3.3 6.6 2.8-.3 10.9-7.2 12.2-9z" class="st3"/></g><g id="g650"><path id="path652" d="M391.7 373.8c.9-2 2.7-5.5 1-8.2-.9-1.4-.9-.9-.9-1.5-.1-6.6-.5.8-1.7.2-2.5-1.2-7.6 2.3-13.3 14.6-4.2 8.8 4.3 6 4.4 6 2.7-.9 9.6-9.1 10.5-11.1z" class="st3"/></g><g id="g654"><path id="path656" d="M405.2 347.6c.6-2.1 1.4-6-.9-8.2-1.2-1.1-1.1-.7-1.2-1.3-1.6-6.4-.3.9-1.6.5-2.7-.6-6.8 4-9.6 17.2-2.5 9.3 5.4 5 5.5 4.9 2.4-1.3 7.4-11 7.8-13.1z" class="st3"/></g><g id="g658"><path id="path660" d="M412.1 318.8c-.1-2.2 0-6.1-2.9-7.7-1.4-.8-1.3-.4-1.5-.9-3-5.8-.2.9-1.4.9-2.7.1-5.6 5.6-5.1 19-.1 9.7 6.4 3.6 6.5 3.4 2.1-1.9 4.6-12.5 4.4-14.7z" class="st3"/></g><g id="g662"><path id="path664" d="M411.6 289.3c-.6-2.1-1.6-5.9-4.7-6.8-1.6-.4-1.3-.1-1.7-.5-4.4-4.9.1.9-1.1 1.2-2.7.8-4 6.8-.3 19.7 2.4 9.4 7.1 1.9 7.1 1.7 1.7-2.4 1.5-13.2.7-15.3z" class="st3"/></g><g id="g666"><path id="path668" d="M404.2 260.7c-1-1.9-3-5.4-6.2-5.5-1.6 0-1.3.2-1.8-.1-5.4-3.5.3.8-.8 1.5-2.4 1.4-2.2 7.5 4.4 19.2 4.5 8.6 7.4.1 7.4 0 .9-2.7-1.8-13.2-3-15.1z" class="st3"/></g></g></g><g id="g670"><g id="g672"><path id="path674" d="M149.9 410c-28.8-25.9-38.7-60.2-41.3-89-.9-9.6-7-11.1-6.6-18.9.8-17.7 5.9-37.1 5.9-37.1" class="st10"/><g id="g676"><path id="path678" d="M134.5 401.4c-1.1-1.7-3.1-4.8-1.6-7.6.8-1.4.8-1 .8-1.6-.5-6.1.6.6 1.6-.1 2.3-1.4 7.5 1.2 13.9 12 4.8 7.7-3.6 6.4-3.7 6.3-2.6-.3-10.1-7.2-11-9z" class="st3"/></g><g id="g680"><path id="path682" d="M119.3 378.5c-.7-1.9-2-5.3.1-7.8 1.1-1.2 1-.8 1.1-1.4.8-6.1.5.7 1.6.3 2.6-.9 7.1 2.8 10.9 14.8 3 8.6-5 5.5-5 5.4-2.4-1-8.2-9.3-8.7-11.3z" class="st3"/></g><g id="g684"><path id="path686" d="M109.3 353c-.3-2-.9-5.6 1.6-7.6 1.3-1 1.2-.6 1.3-1.1 1.9-5.9.3.8 1.5.6 2.7-.4 6.5 4.2 7.8 16.7 1.1 9-6 4.3-6 4.2-2.2-1.5-6.1-10.7-6.2-12.8z" class="st3"/></g><g id="g688"><path id="path690" d="M104 326.3c.1-2.1.1-5.5 2.7-7 1.3-.9 1.2-.6 1.4-1.1 1.4-6.2.6.8 1.5.7 2.9-.1 6.1 5.4 5.1 17.9-.4 9.1-6.6 3.1-6.7 3.1-2-1.8-4.1-11.6-4-13.6z" class="st3"/></g><g id="g692"><path id="path694" d="M97 300.5c.4-2 1-5.6 4.1-6.6 1.5-.5 1.3-.2 1.6-.6 3.8-4.9 0 .9 1.2 1.1 1.3.2 2.6 1.8 3 4.8.7 4.2-.6 4.4 1.8 10.9 2.4 9.9-5.6 4.5-5.3 5-1-.6-3-2.1-4.9-5.7-2-3.8-1.7-8.4-1.5-8.9z" class="st3"/></g><g id="g696"><path id="path698" d="M100.7 273.6c.7-1.9 1.8-5.3 4.9-6 1.6-.3 1.3 0 1.7-.4 4.3-4.4-.1.9 1.1 1.2 2.6.8 4.1 6.8-1 18.5-3.5 8.5-7.3.8-7.3.7-1.2-2.3-.1-12.1.6-14z" class="st3"/></g></g></g><g id="g700"><g id="g702"><path id="path704" d="M179 405c-85-72-37-152-37-152" class="st10"/><g id="g706"><path id="path708" d="M162.4 396.4c-1.3-1.7-3.6-4.8-2.5-7.8.6-1.5.7-1.1.6-1.7-1.4-6.3.7.6 1.7-.2 2.2-1.6 8 .9 15.7 12.1 5.6 8-3.3 6.6-3.3 6.6-2.9-.3-11-7.2-12.2-9z" class="st3"/></g><g id="g710"><path id="path712" d="M143.9 373.7c-.9-2-2.7-5.5-.9-8.2.9-1.4.9-.9.9-1.5.1-6.6.5.8 1.7.2 2.5-1.2 7.6 2.4 13.2 14.7 4.2 8.8-4.3 6-4.4 5.9-2.8-.8-9.6-9.1-10.5-11.1z" class="st3"/></g><g id="g714"><path id="path716" d="M130.5 347.4c-.5-2.1-1.3-6 1-8.2 1.2-1.1 1.1-.7 1.2-1.3 1.7-6.3.3.9 1.6.6 2.8-.5 6.7 4.1 9.5 17.2 2.4 9.4-5.4 5-5.5 4.9-2.5-1.3-7.4-11-7.8-13.2z" class="st3"/></g><g id="g718"><path id="path720" d="M124 318.6c.1-2.2.1-6.1 3-7.7 1.5-.8 1.3-.4 1.5-.9 3-5.7.2.9 1.4.9 2.8.2 5.5 5.7 4.8 19 0 9.6-6.5 3.5-6.5 3.4-2.1-1.9-4.5-12.5-4.2-14.7z" class="st3"/></g><g id="g722"><path id="path724" d="M124.8 289c.6-2.1 1.7-5.9 4.8-6.7 1.6-.4 1.3-.1 1.7-.5 4.4-4.8-.1.9 1.1 1.3 2.7.8 3.9 6.9 0 19.7-2.5 9.4-7.2 1.8-7.2 1.6-1.5-2.5-1.2-13.3-.4-15.4z" class="st3"/></g><g id="g726"><path id="path728" d="M132.7 260.6c1.1-1.9 3-5.4 6.3-5.4 1.6 0 1.3.3 1.8-.1 5.5-3.4-.3.8.7 1.5 2.4 1.5 2.1 7.5-4.7 19.1-4.6 8.5-7.4 0-7.4-.1-.8-2.7 2.1-13.2 3.3-15z" class="st3"/></g></g></g><g id="g730"><g id="g732"><g id="g734"><path id="path736" d="M402.5 401.4c1.1-1.7 3.1-4.8 1.6-7.6-.8-1.4-.8-1-.8-1.6.5-6.1-.6.6-1.6-.1-2.3-1.4-7.5 1.2-13.9 12-4.8 7.7 3.6 6.4 3.7 6.3 2.6-.3 10.1-7.2 11-9z" class="st3"/></g><g id="g738"><path id="path740" d="M417.7 378.5c.7-1.9 2-5.3-.1-7.8-1.1-1.2-1-.8-1.1-1.4-.8-6.1-.5.7-1.6.3-2.6-.9-7.1 2.8-10.9 14.8-3 8.6 5 5.5 5 5.4 2.4-1 8.2-9.3 8.7-11.3z" class="st3"/></g><g id="g742"><path id="path744" d="M427.7 353c.3-2 .9-5.6-1.6-7.6-1.3-1-1.2-.6-1.3-1.1-1.9-5.9-.3.8-1.5.6-2.7-.4-6.5 4.2-7.8 16.7-1.1 9 6 4.3 6 4.2 2.2-1.5 6.1-10.7 6.2-12.8z" class="st3"/></g><g id="g746"><path id="path748" d="M433 326.3c-.1-2.1-.1-5.5-2.7-7-1.3-.9-1.2-.6-1.4-1.1-1.4-6.2-.6.8-1.5.7-2.9-.1-6.1 5.4-5.1 17.9.4 9.1 6.6 3.1 6.7 3.1 2-1.8 4.1-11.6 4-13.6z" class="st3"/></g><g id="g750"><path id="path752" d="M440 300.5c-.4-2-1-5.6-4.1-6.6-1.5-.5-1.3-.2-1.6-.6-3.8-4.9 0 .9-1.2 1.1-1.3.2-2.6 1.8-3 4.8-.7 4.2.6 4.4-1.8 10.9-2.4 9.9 5.6 4.5 5.3 5 1-.6 3-2.1 4.9-5.7 2-3.8 1.7-8.4 1.5-8.9z" class="st3"/></g><g id="g754"><path id="path756" d="M436.3 273.6c-.7-1.9-1.8-5.3-4.9-6-1.6-.3-1.3 0-1.7-.4-4.3-4.4.1.9-1.1 1.2-2.6.8-4.1 6.8 1 18.5 3.5 8.5 7.3.8 7.3.7 1.2-2.3.1-12.1-.6-14z" class="st3"/></g></g></g><g id="g758"><g id="g760"><path id="path762" d="M373.7 303.1S425 308.8 435 352" class="st10"/><g id="g764"><path id="path766" d="M432.9 333.3c-1.3-1.8-4-4.9-7.2-4.2-1.6.3-1.2.5-1.7.3-6-2.2.5.8-.5 1.6-2 2.1-.5 7.2 6.5 17.6 4.6 8.1 7.4-.1 7.3-.3 1.1-2.9-2.7-13.4-4.4-15z" class="st3"/></g><g id="g768"><path id="path770" d="M412 311.9c-2-1-5.6-2.6-8.2-.7-1.3 1-.9 1-1.5 1-6.4.4.7.5.2 1.6-1.1 2.7 2.6 7 13.9 12.9 7.8 5 6.5-3.6 6.3-3.8-.4-2.8-8.6-10.2-10.7-11z" class="st3"/></g><g id="g772"><path id="path774" d="M385.1 300.3c-2.1-.3-6-.8-8 1.8-1 1.3-.6 1.2-1.1 1.4-5.9 2.3.8.3.7 1.5-.2 2.8 4.6 6.1 17.5 7.8 9.3 1.6 4.6-5.8 4.5-5.9-1.5-2.4-11.4-6.6-13.6-6.6z" class="st3"/></g></g></g><g id="g776"><g id="g778"><path id="path780" d="M102 352c10-43.2 61.3-48.9 61.3-48.9" class="st10"/><g id="g782"><path id="path784" d="M104.1 333.3c1.3-1.8 4-4.9 7.2-4.2 1.6.3 1.2.5 1.7.3 6-2.2-.5.8.5 1.6 2 2.1.5 7.2-6.5 17.6-4.6 8.1-7.4-.1-7.3-.3-1.1-2.9 2.7-13.4 4.4-15z" class="st3"/></g><g id="g786"><path id="path788" d="M125 311.9c2-1 5.6-2.6 8.2-.7 1.3 1 .9 1 1.5 1 6.4.4-.7.5-.2 1.6 1.1 2.7-2.6 7-13.9 12.9-7.8 5-6.5-3.6-6.3-3.8.4-2.8 8.6-10.2 10.7-11z" class="st3"/></g><g id="g790"><path id="path792" d="M151.9 300.3c2.1-.3 6-.8 8 1.8 1 1.3.6 1.2 1.1 1.4 5.9 2.3-.8.3-.7 1.5.2 2.8-4.6 6.1-17.5 7.8-9.3 1.6-4.6-5.8-4.5-5.9 1.5-2.4 11.4-6.6 13.6-6.6z" class="st3"/></g></g></g><g id="g794"><g id="g796"><g id="g798"><path id="path800" d="M167.4 379.9c-.5-1.8-1.7-5.1.3-7.5 1-1.2 1-.8 1.1-1.4.6-6.1.5.7 1.6.2 2.4-1 7.7 2.8 10.1 15.5 1.7 9-5.7 4.6-5.7 4.6-2.2-1.2-6.9-9.5-7.4-11.4z" class="st3"/></g></g></g><g id="g802"><g id="g804"><g id="g806"><path id="path808" d="M363.7 375.5c1.5-1.4 4.1-4.1 7.3-3.4 1.6.4 1.2.5 1.7.3 6.1-2.4-.5.8.4 1.6 2 1.8.5 8.5-10.6 17.1-7.8 6.1-6.7-3-6.7-3 .4-2.8 6.4-11.2 7.9-12.6z" class="st3"/></g></g></g></g><g id="bANH_XE" transform="translate(-6.627 -10.41)"><g id="Banh_xe"><g id="g854"><g id="XMLID_13_"><g id="g857"><path id="path859" d="m327.4 346.7-3-3.2-3.2-3 1-8.3-3.8-2.9-4-2.6-4.1-2.4-7.3 4.1-4-1.8-4.1-1.6-2.2-8.1-4.6-1.2-4.7-.9-4.7-.7-5.1 6.6-4.4-.1-4.4.1-5.1-6.6-4.7.7-4.7.9-4.6 1.2-2.2 8.1-4.1 1.6-4 1.8-7.3-4.1-4.1 2.4-4 2.6-3.8 2.9 1 8.3-3.2 3-3 3.2-8.3-1-2.9 3.8-2.6 4-2.4 4.1 4.1 7.3-1.8 4-1.6 4.1-8.1 2.2-1.2 4.6-.9 4.7-.7 4.7 6.6 5.1-.1 4.4.1 4.4-6.6 5.1.7 4.7.9 4.7 1.2 4.6 8.1 2.2 1.6 4.1 1.8 4-4.1 7.3 2.4 4.1 2.6 4 2.9 3.8 8.3-1 3 3.2 3.2 3-1 8.3 3.8 2.9 4 2.6 4.1 2.4 7.3-4.1 4 1.8 4.1 1.6 2.2 8.1 4.6 1.2 4.7.9 4.7.7 5.1-6.6 4.4.1 4.4-.1 5.1 6.6 4.7-.7 4.7-.9 4.6-1.2 2.2-8.1 4.1-1.6 4-1.8 7.3 4.1 4.1-2.4 4-2.6 3.8-2.9-1-8.3 3.2-3 3-3.2 8.3 1 2.9-3.8 2.6-4 2.4-4.1-4.1-7.3 1.8-4 1.6-4.1 8.1-2.2 1.2-4.6.9-4.7.7-4.7-6.6-5.1.1-4.4-.1-4.4 6.6-5.1-.7-4.7-.9-4.7-1.2-4.6-8.1-2.2-1.6-4.1-1.8-4 4.1-7.3-2.4-4.1-2.6-4-2.9-3.8zm5.2-4.6 8.5-.7 3.1 4.1 2.9 4.3 2.6 4.5-3.9 7.6 2 4.4 1.7 4.5 8.2 2.6 1.3 5 1 5.1.7 5.1-6.5 5.5.1 4.8-.1 4.8 6.5 5.5-.7 5.1-1 5.1-1.3 5-8.2 2.6-1.7 4.5-2 4.4 3.9 7.6-2.6 4.5-2.9 4.3-3.1 4.1-8.5-.7-3.3 3.5-3.5 3.3.7 8.5-4.1 3.1-4.3 2.9-4.5 2.6-7.6-3.9-4.4 2-4.5 1.7-2.6 8.2-5 1.3-5.1 1-5.1.7-5.5-6.5-4.8.1-4.8-.1-5.5 6.5-5.1-.7-5.1-1-5-1.3-2.6-8.2-4.5-1.7-4.4-2-7.6 3.9-4.5-2.6-4.3-2.9-4.1-3.1.7-8.5-3.5-3.3-3.3-3.5-8.5.7-3.1-4.1-2.9-4.3-2.6-4.5 3.9-7.6-2-4.4-1.7-4.5-8.2-2.6-1.3-5-1-5.1-.7-5.1 6.5-5.5-.1-4.8.1-4.8-6.5-5.5.7-5.1 1-5.1 1.3-5 8.2-2.6 3.6-8.8-3.9-7.6 2.6-4.5 2.9-4.3 3.1-4.1 8.5.7 3.3-3.5 3.5-3.3-.7-8.5 4.1-3.1 4.3-2.9 4.5-2.6 7.6 3.9 4.4-2 4.5-1.7 2.6-8.2 5-1.3 5.1-1 5.1-.7 5.5 6.5 4.8-.1 4.8.1 5.5-6.5 5.1.7 5.1 1 5 1.3 2.6 8.2 4.5 1.7 4.4 2 7.6-3.9 4.5 2.6 4.3 2.9 4.1 3.1-.7 8.5 3.5 3.3z" class="st11"/><path id="polygon861" d="m347.3 398.7-.2 4.4 6.6 5.1-.7 4.7-.9 4.7-1.2 4.6-8 2.3-1.6 4.1-1.8 3.9 4.1 7.3-2.4 4.1-2.6 4-2.9 3.8-8.3-1-3 3.2-3.2 3 1.1 8.3-3.9 2.8-3.9 2.7-4.1 2.4-7.3-4.1-4 1.8-4.1 1.5-2.2 8.1-4.6 1.2-4.7.9-4.7.7-5.2-6.6-4.3.1-4.4-.1-5.2 6.6-4.7-.7-4.7-.9-4.6-1.2-2.2-8.1-4.1-1.5-4-1.8-7.3 4.1-4.1-2.4-3.9-2.7-3.8-2.8 1-8.3-3.2-3-3-3.2-8.3 1-2.9-3.8-2.6-4-2.4-4.1 4.1-7.3-1.8-3.9-1.6-4.1-8-2.3-1.2-4.6-.9-4.7-.7-4.7 6.6-5.1-.1-4.4.1-4.4-6.6-5.1.7-4.7.9-4.7 1.2-4.6 8-2.3 1.6-4 1.8-4-4.1-7.3 2.4-4.1 2.6-4 2.9-3.8 8.3 1 3-3.1 3.2-3.1-1-8.3 3.8-2.8 3.9-2.7 4.1-2.4 7.3 4.1 4-1.8 4.1-1.5 2.2-8.1 4.6-1.2 4.7-.9 4.7-.7 5.2 6.6 4.4-.1 4.3.1 5.2-6.6 4.7.7 4.7.9 4.6 1.2 2.2 8.1 4.1 1.5 4 1.8 7.3-4.1 4.1 2.4 3.9 2.7 3.9 2.8-1.1 8.3 3.2 3.1 3 3.1 8.3-1 2.9 3.8 2.6 4 2.4 4.1-4.1 7.3 1.8 4 1.6 4 8 2.3 1.2 4.6.9 4.7.7 4.7-6.6 5.1z" class="st11"/></g><g id="g863"><path id="polygon865" d="m322.3 332.2-3.9-2.8-3.9-2.7-4.1-2.4-7.3 4.1-4-1.8-4.1-1.5-2.2-8.1-4.6-1.2-4.7-.9-4.7-.7-5.2 6.6-4.3-.1-4.4.1-5.2-6.6-4.7.7-4.7.9-4.6 1.2-2.2 8.1-4.1 1.5-4 1.8-7.3-4.1-4.1 2.4-3.9 2.7-3.8 2.8 1 8.3-3.2 3.1-3 3.1-8.3-1-2.9 3.8-2.6 4-2.4 4.1 4.1 7.3-1.8 4-1.6 4-8 2.3-1.2 4.6-.9 4.7-.7 4.7 6.6 5.1-.1 4.4.1 4.4-6.6 5.1.7 4.7.9 4.7 1.2 4.6 8 2.3 1.6 4.1 1.8 3.9-4.1 7.3 2.4 4.1 2.6 4 2.9 3.8 8.3-1 3 3.2 3.2 3-1 8.3 3.8 2.8 3.9 2.7 4.1 2.4 7.3-4.1 4 1.8 4.1 1.5 2.2 8.1 4.6 1.2 4.7.9 4.7.7 5.2-6.6 4.4.1 4.3-.1 5.2 6.6 4.7-.7 4.7-.9 4.6-1.2 2.2-8.1 4.1-1.5 4-1.8 7.3 4.1 4.1-2.4 3.9-2.7 3.9-2.8-1.1-8.3 3.2-3 3-3.2 8.3 1 2.9-3.8 2.6-4 2.4-4.1-4.1-7.3 1.8-3.9 1.6-4.1 8-2.3 1.2-4.6.9-4.7.7-4.7-6.6-5.1.2-4.4-.2-4.4 6.6-5.1-.7-4.7-.9-4.7-1.2-4.6-8-2.3-1.6-4-1.8-4 4.1-7.3-2.4-4.1-2.6-4-2.9-3.8-8.3 1-3-3.1-3.2-3.1z" style="fill:#fcd116;stroke:#ce1126"/><path id="polygon867" d="m347.2 349.8 2.6 4.4-4 7.6 2 4.4 1.7 4.4 8.2 2.6 1.2 5 1.1 5.1.7 5.1-6.6 5.5.2 4.8-.2 4.8 6.6 5.5-.7 5.1-1.1 5.1-1.2 5-8.2 2.6-1.7 4.4-2 4.4 4 7.6-2.6 4.5-2.9 4.2-3.1 4.2-8.6-.8-3.2 3.5-3.5 3.3.7 8.5-4.1 3.1-4.3 2.9-4.4 2.6-7.7-3.9-4.3 1.9-4.5 1.7-2.6 8.2-5 1.3-5 1-5.2.7-5.5-6.5-4.7.1-4.8-.1-5.5 6.5-5.2-.7-5-1-5-1.3-2.6-8.2-4.5-1.7-4.3-1.9-7.6 3.9-4.5-2.6-4.3-2.9-4.1-3.1.7-8.5-3.5-3.3-3.2-3.5-8.6.8-3.1-4.2-2.8-4.2-2.7-4.5 4-7.6-2-4.4-1.7-4.4-8.1-2.6-1.3-5-1.1-5.1-.7-5.1 6.6-5.5-.1-4.8.1-4.8-6.6-5.5.7-5.1 1.1-5.1 1.3-5 8.1-2.6 3.7-8.8-4-7.6 2.7-4.4 2.8-4.3 3.1-4.2 8.6.8 3.2-3.5 3.5-3.3-.7-8.5 4.1-3.1 4.3-2.9 4.5-2.6 7.6 3.9 4.3-1.9 4.5-1.7 2.6-8.2 5-1.3 5-1 5.2-.7 5.5 6.5 4.8-.1 4.7.1 5.5-6.5 5.2.7 5 1 5 1.3 2.6 8.2 4.5 1.7 4.3 1.9 7.7-3.9 4.4 2.6 4.3 2.9 4.1 3.1-.7 8.5 3.5 3.3 3.2 3.5 8.6-.8 3.1 4.2z" class="st13"/><path id="line869" d="m327.4 346.7 5.2-4.6" class="st13"/></g></g><path id="line871" d="m279.6 307.3-.8 6.9" class="st13"/><path id="line873" d="m274 313.8-.4 7" class="st13"/><path id="line875" d="m264.5 313.8.4 7" class="st13"/><path id="line877" d="m258.9 307.3.8 6.9" class="st13"/><path id="line879" d="m243.8 310.3 1.9 6.7" class="st13"/><path id="line881" d="m294.7 310.3-1.9 6.7" class="st13"/><path id="line883" d="m297.3 318.5-2.4 6.3" class="st13"/><path id="line885" d="m313.8 318.2-3.4 6.1" class="st13"/><path id="line887" d="m306.1 322.1-3 6.3" class="st13"/><path id="line889" d="m326.6 326.8-4.4 5.4" class="st13"/><path id="line891" d="m325.9 335.3-4.7 5.2" class="st13"/><path id="line893" d="m341.2 341.3-5.5 4.4" class="st13"/><path id="line895" d="m339.5 364.9 6.3-3.1" class="st13"/><path id="line897" d="m343.6 357.6 6.2-3.4" class="st13"/><path id="line899" d="m357.7 373.2-6.8 2" class="st13"/><path id="line901" d="m342.9 372.9 6.6-2.3" class="st13"/><path id="line903" d="m353.7 389.2 7-.8" class="st13"/><path id="line905" d="m347.1 394.3 7-.4" class="st13"/><path id="line907" d="m350.9 422.2 6.8 2" class="st13"/><path id="line909" d="m342.9 424.5 6.6 2.3" class="st13"/><path id="line911" d="m347.1 403.1 7 .4" class="st13"/><path id="line913" d="m353.7 408.2 7 .8" class="st13"/><path id="line915" d="m343.6 439.8 6.2 3.4" class="st13"/><path id="line917" d="m339.5 432.5 6.3 3.1" class="st13"/><path id="line919" d="m341.2 456.1-5.5-4.4" class="st13"/><path id="line921" d="m332.6 455.3-5.2-4.6" class="st13"/><path id="line923" d="m241.2 318.5 2.3 6.6" class="st13"/><path id="line925" d="m232.4 322.1 3 6.3" class="st13"/><path id="line927" d="m224.7 318.2 3.4 6.1" class="st13"/><path id="line929" d="m211.9 326.8 4.4 5.4" class="st13"/><path id="line931" d="m205.9 342.1 5.2 4.6" class="st13"/><path id="line933" d="m212.6 335.3 4.7 5.2" class="st13"/><path id="line935" d="m197.3 341.3 5.5 4.4" class="st13"/><path id="line937" d="m188.7 354.2 6.2 3.4" class="st13"/><path id="line939" d="m192.7 361.8 6.3 3.1" class="st13"/><path id="line941" d="m189 370.6 6.6 2.3" class="st13"/><path id="line943" d="m180.8 373.2 6.8 2" class="st13"/><path id="line945" d="m177.8 388.4 7 .8" class="st13"/><path id="line947" d="m184.4 393.9 7 .4" class="st13"/><path id="line949" d="m191.4 403.1-7 .4" class="st13"/><path id="line951" d="m184.8 408.2-7 .8" class="st13"/><path id="line953" d="m187.6 422.2-6.8 2" class="st13"/><path id="line955" d="m195.6 424.5-6.6 2.3" class="st13"/><path id="line957" d="m199 432.5-6.3 3.1" class="st13"/><path id="line959" d="m194.9 439.8-6.2 3.4" class="st13"/><path id="line961" d="m202.8 451.7-5.5 4.4" class="st13"/><path id="line963" d="m211.1 450.7-5.2 4.6" class="st13"/><path id="line965" d="m217.3 456.9-4.7 5.2" class="st13"/><path id="line967" d="m216.3 465.2-4.4 5.4" class="st13"/><path id="line969" d="m228.1 473.1-3.4 6.1" class="st13"/><path id="line971" d="m235.4 469-3 6.3" class="st13"/><path id="line973" d="m243.5 472.3-2.3 6.6" class="st13"/><path id="line975" d="m245.7 480.4-1.9 6.7" class="st13"/><path id="line977" d="m259.7 483.2-.8 6.9" class="st13"/><path id="line979" d="m264.9 476.6-.4 7" class="st13"/><path id="line981" d="m273.6 476.6.4 7" class="st13"/><path id="line983" d="m278.8 483.2.7 6.9" class="st13"/><path id="line985" d="m292.8 480.4 1.9 6.7" class="st13"/><path id="line987" d="m295 472.3 2.3 6.6" class="st13"/><path id="line989" d="m303.1 469 3 6.3" class="st13"/><path id="line991" d="m310.4 473.1 3.4 6.1" class="st13"/><path id="line993" d="m322.2 465.2 4.4 5.4" class="st13"/><g id="XMLID_12_"><g id="g1002"><path id="path1004" d="M281.6 396.5c1.4 6.9-3.1 13.7-10.1 15.1-6.9 1.4-13.7-3.1-15.1-10.1-1.4-6.9 3.1-13.7 10.1-15.1s13.7 3.2 15.1 10.1z" class="st13"/><circle id="circle1006" cx="269" cy="399" r="56.6" class="st13"/><circle id="circle1008" cx="269" cy="399" r="28.6" class="st13"/><circle id="circle1010" cx="268.9" cy="398.8" r="18.2" class="st13"/><circle id="circle1012" cx="268.9" cy="398.8" r="50.9" class="st13"/></g></g></g></g></g><g id="Chan" transform="translate(-6.627 -10.41)"><g id="XMLID_14_"><g id="g1016"><path id="path1018" d="M268.5 466.4v15.1l136.2 41.3c-2-.8-3.5-3.8-3.5-7.3 0-4.2 2-7.5 4.5-7.5.2 0 .4 0 .5.1z" class="st11"/><path id="path1020" d="M268.5 482.7v16l138 41.9c-2-1-3.5-4.1-3.5-7.6 0-4.4 2.2-8 5-8z" class="st11"/><path id="path1022" d="M268.5 452.3v13L402 505.5c-1.6-.8-2.8-3.3-2.8-6.1 0-3.6 1.8-6.4 4-6.4.2 0 .4 0 .5.1z" class="st11"/><path id="path1024" d="M268.5 439.6v11.1l131.4 39.8c-1.4-.8-2.3-2.8-2.3-5.2 0-3 1.6-5.5 3.5-5.5.2 0 .4 0 .6.1v-.1z" class="st11"/><path id="path1026" d="M268.5 429v8.8l130.4 39.6c-1.3-.5-2.2-2.3-2.2-4.3 0-2.5 1.3-4.5 3-4.5z" class="st11"/><path id="path1028" d="M268.5 420.3v7.1l129.8 38.9c-1-.4-1.8-1.8-1.8-3.4 0-1.9 1.1-3.5 2.5-3.5z" class="st11"/><path id="path1030" d="M399 459.5c-1.4 0-2.5 1.6-2.5 3.5 0 1.6.7 2.9 1.8 3.4.2.1.5.1.7.1 1.4 0 2.5-1.6 2.5-3.5s-1.1-3.5-2.5-3.5" class="st16"/><path id="path1032" d="M399.7 468.5c-1.7 0-3 2-3 4.5 0 2.1.9 3.8 2.2 4.3.3.1.5.2.8.2 1.7 0 3-2 3-4.5s-1.4-4.5-3-4.5" class="st16"/><path id="path1034" d="M399.9 490.5q.6.3 1.2.3c1.9 0 3.5-2.5 3.5-5.5 0-2.7-1.2-5-2.9-5.4-.2-.1-.4-.1-.6-.1-1.9 0-3.5 2.5-3.5 5.5 0 2.4 1 4.4 2.3 5.2" class="st16"/><path id="path1036" d="M403.2 492.9c-2.2 0-4 2.9-4 6.4 0 2.9 1.2 5.3 2.8 6.1h.1c.3.2.7.3 1.1.3 2.2 0 4-2.9 4-6.4 0-3.3-1.5-6-3.5-6.4z" class="st16"/><path id="path1038" d="M405.7 507.9c-2.5 0-4.5 3.4-4.5 7.5 0 3.6 1.5 6.6 3.5 7.3l.2.1c.3.1.5.1.8.1 2.5 0 4.5-3.4 4.5-7.5 0-3.9-1.7-7-4-7.5z" class="st16"/><path id="path1040" d="M408 525c-2.8 0-5 3.6-5 8 0 3.6 1.5 6.6 3.5 7.6.5.3 1 .4 1.5.4 2.8 0 5-3.6 5-8s-2.2-8-5-8" class="st11"/><path id="path1042" d="m404.9 522.9-.2-.1c.1 0 .1 0 .2.1" class="st16"/></g><g id="g1044"><path id="path1046" d="M406.5 540.6c.5.3 1 .4 1.5.4 2.8 0 5-3.6 5-8s-2.2-8-5-8-5 3.6-5 8c0 3.6 1.4 6.6 3.5 7.6" class="st17"/><path id="path1048" d="M406.2 508c-.2 0-.4-.1-.5-.1-2.5 0-4.5 3.4-4.5 7.5 0 3.6 1.5 6.6 3.5 7.3.1 0 .1.1.2.1.3.1.5.1.8.1 2.5 0 4.5-3.4 4.5-7.5 0-3.8-1.7-7-4-7.4z" class="st17"/><path id="path1050" d="M402.1 505.5c.3.2.7.3 1.1.3 2.2 0 4-2.9 4-6.4 0-3.3-1.5-6-3.5-6.4-.2 0-.4-.1-.5-.1-2.2 0-4 2.9-4 6.4 0 2.9 1.2 5.4 2.9 6.2" class="st17"/><path id="path1052" d="M401.8 479.9c-.2-.1-.4-.1-.6-.1-1.9 0-3.5 2.5-3.5 5.5 0 2.4 1 4.4 2.3 5.2q.6.3 1.2.3c1.9 0 3.5-2.5 3.5-5.5-.1-2.7-1.3-5-2.9-5.4z" class="st17"/><path id="path1054" d="M399.7 468.5c-1.7 0-3 2-3 4.5 0 2.1.9 3.8 2.2 4.3.3.1.5.2.8.2 1.7 0 3-2 3-4.5s-1.4-4.5-3-4.5z" class="st17"/><path id="path1056" d="M399 459.5c-1.4 0-2.5 1.6-2.5 3.5 0 1.6.7 2.9 1.8 3.4.2.1.5.1.7.1 1.4 0 2.5-1.6 2.5-3.5s-1.1-3.5-2.5-3.5z" class="st17"/><path id="path1058" d="m408 525-139.5-42.3v16l138 41.9" class="st17"/><path id="polyline1060" d="m406.2 508-137.7-41.6v15.1l136.2 41.3.2.1" class="st17"/><path id="path1062" d="m403.8 492.9-135.3-40.6v13L402 505.5h.1" class="st17"/><path id="polyline1064" d="m401.8 479.8-133.3-40.2v11.1l131.4 39.8.6.1" class="st17"/><path id="polyline1066" d="M399.7 468.5 268.5 429v8.8l130.4 39.6" class="st17"/><path id="polyline1068" d="m399 459.5-130.5-39.2v7.2l129.8 38.9" class="st17"/></g></g><g id="XMLID_2_"><g id="g1071"><path id="path1073" d="M268.5 466.4v15.1l-136.2 41.3c2-.8 3.5-3.8 3.5-7.3 0-4.2-2-7.5-4.5-7.5-.2 0-.4 0-.5.1z" class="st11"/><path id="path1075" d="M268.5 482.7v16l-138 41.9c2-1 3.5-4.1 3.5-7.6 0-4.4-2.2-8-5-8z" class="st11"/><path id="path1077" d="M268.5 452.3v13L135 505.5c1.6-.8 2.8-3.3 2.8-6.1 0-3.6-1.8-6.4-4-6.4-.2 0-.4 0-.5.1z" class="st11"/><path id="path1079" d="M268.5 439.6v11.1l-131.4 39.8c1.4-.8 2.3-2.8 2.3-5.2 0-3-1.6-5.5-3.5-5.5-.2 0-.4 0-.6.1v-.1z" class="st11"/><path id="path1081" d="M268.5 429v8.8l-130.4 39.6c1.3-.5 2.2-2.3 2.2-4.3 0-2.5-1.3-4.5-3-4.5z" class="st11"/><path id="path1083" d="M268.5 420.3v7.1l-129.8 38.9c1-.4 1.8-1.8 1.8-3.4 0-1.9-1.1-3.5-2.5-3.5z" class="st11"/><path id="path1085" d="M138 459.5c1.4 0 2.5 1.6 2.5 3.5 0 1.6-.7 2.9-1.8 3.4-.2.1-.5.1-.7.1-1.4 0-2.5-1.6-2.5-3.5s1.1-3.5 2.5-3.5" class="st16"/><path id="path1087" d="M137.3 468.5c1.7 0 3 2 3 4.5 0 2.1-.9 3.8-2.2 4.3-.3.1-.5.2-.8.2-1.7 0-3-2-3-4.5s1.4-4.5 3-4.5" class="st16"/><path id="path1089" d="M137.1 490.5q-.6.3-1.2.3c-1.9 0-3.5-2.5-3.5-5.5 0-2.7 1.2-5 2.9-5.4.2-.1.4-.1.6-.1 1.9 0 3.5 2.5 3.5 5.5 0 2.4-1 4.4-2.3 5.2" class="st16"/><path id="path1091" d="M133.8 492.9c2.2 0 4 2.9 4 6.4 0 2.9-1.2 5.3-2.8 6.1h-.1c-.4.2-.7.3-1.1.3-2.2 0-4-2.9-4-6.4 0-3.3 1.5-6 3.5-6.4z" class="st16"/><path id="path1093" d="M131.3 507.9c2.5 0 4.5 3.4 4.5 7.5 0 3.6-1.5 6.6-3.5 7.3l-.2.1c-.3.1-.5.1-.8.1-2.5 0-4.5-3.4-4.5-7.5 0-3.9 1.7-7 4-7.5z" class="st16"/><path id="path1095" d="M129 525c2.8 0 5 3.6 5 8 0 3.6-1.5 6.6-3.5 7.6-.5.3-1 .4-1.5.4-2.8 0-5-3.6-5-8s2.2-8 5-8" class="st11"/><path id="path1097" d="m132.1 522.9.2-.1c-.1 0-.1 0-.2.1" class="st16"/></g><g id="g1099"><path id="path1101" d="M130.5 540.6c-.5.3-1 .4-1.5.4-2.8 0-5-3.6-5-8s2.2-8 5-8 5 3.6 5 8c0 3.6-1.5 6.6-3.5 7.6" class="st17"/><path id="path1103" d="M130.8 508c.2 0 .4-.1.5-.1 2.5 0 4.5 3.4 4.5 7.5 0 3.6-1.5 6.6-3.5 7.3-.1 0-.1.1-.2.1-.3.1-.5.1-.8.1-2.5 0-4.5-3.4-4.5-7.5 0-3.8 1.7-7 4-7.4z" class="st17"/><path id="path1105" d="M134.9 505.5c-.4.2-.7.3-1.1.3-2.2 0-4-2.9-4-6.4 0-3.3 1.5-6 3.5-6.4.2 0 .4-.1.5-.1 2.2 0 4 2.9 4 6.4 0 2.9-1.2 5.4-2.9 6.2" class="st17"/><path id="path1107" d="M135.2 479.9c.2-.1.4-.1.6-.1 1.9 0 3.5 2.5 3.5 5.5 0 2.4-1 4.4-2.3 5.2q-.6.3-1.2.3c-1.9 0-3.5-2.5-3.5-5.5.1-2.7 1.3-5 2.9-5.4z" class="st17"/><path id="path1109" d="M137.3 468.5c1.7 0 3 2 3 4.5 0 2.1-.9 3.8-2.2 4.3-.3.1-.5.2-.8.2-1.7 0-3-2-3-4.5s1.4-4.5 3-4.5z" class="st17"/><path id="path1111" d="M138 459.5c1.4 0 2.5 1.6 2.5 3.5 0 1.6-.7 2.9-1.8 3.4-.2.1-.5.1-.7.1-1.4 0-2.5-1.6-2.5-3.5s1.1-3.5 2.5-3.5z" class="st17"/><path id="path1113" d="m129 525 139.5-42.3v16l-138 41.9" class="st17"/><path id="polyline1115" d="m130.8 508 137.7-41.6v15.1l-136.2 41.3-.2.1" class="st17"/><path id="path1117" d="m133.2 492.9 135.3-40.6v13L135 505.5h-.1" class="st17"/><path id="polyline1119" d="m135.2 479.8 133.3-40.2v11.1l-131.4 39.8-.6.1" class="st17"/><path id="polyline1121" d="M137.3 468.5 268.5 429v8.8l-130.4 39.6" class="st17"/><path id="polyline1123" d="m138 459.5 130.5-39.2v7.2l-129.8 38.9" class="st17"/></g></g><path id="path3617_1_" d="M246.5 509.7v-37.6c0-3.7-9.3-3.7-9.3 0v37.6c0 3.5 9.3 3.5 9.3 0z" class="st18"/><path id="path3617_3_" d="M260.5 509.7v-37.6c0-3.7-9.3-3.7-9.3 0v37.6c0 3.5 9.3 3.5 9.3 0z" class="st18"/><path id="path3617_4_" d="M273 509.7v-37.6c0-3.7-9.3-3.7-9.3 0v37.6c0 3.5 9.3 3.5 9.3 0z" class="st18"/><path id="path3617_5_" d="M285.8 509.7v-37.6c0-3.7-9.3-3.7-9.3 0v37.6c0 3.5 9.3 3.5 9.3 0z" class="st18"/><path id="path3617_6_" d="M298.2 509.7v-37.6c0-3.7-9.3-3.7-9.3 0v37.6c0 3.5 9.3 3.5 9.3 0z" class="st18"/></g><g id="Chu" transform="translate(-6.627 -10.41)"><g id="Chan_cang"><g id="g1132"><g id="XMLID_1_"><g id="g1135"><path id="path1137" d="M120.2 422.3c-10.5 32.7 38.2 23.5 59.7 13.8 6.6-3 16.9-5.7 23.7-8.3 19.6-7.5 40.3-8.6 65-8.8 24.7.2 45.4 1.3 65 8.8 6.8 2.6 17.1 5.4 23.7 8.3 21.5 9.6 70.2 18.8 59.7-13.8-2.6-8.2-14.7-7.6-14.8-7.6-36.3 25.7-33.9.4-27.9-9.6 2.8-4.6 2.8-14.5 36.3 5.3 8.3 4.9 18.1 11.5 26.8 15.5 38 17.8 46.7-15.5 47.2-16-4.2 33.5-56.7 30.6-68.2 53l-27.2 1.6-29.2 35.3c-24.8-9.5-57.6-18.8-91.4-19.2-33.8.4-66.6 9.6-91.4 19.2L148 464.5l-27.2-1.6c-11.5-22.3-64.3-19.5-68.4-53 .5.5 9.5 33.8 47.5 16 8.7-4.1 18.5-10.6 26.8-15.5 33.5-19.8 33.5-10 36.3-5.3 6 10 8.5 35.3-27.9 9.6-.3 0-12.3-.6-14.9 7.6" style="fill:#ce1128"/></g><g id="g1139"><path id="path1141" d="M268.5 419c24.7.2 45.4 1.3 65 8.8 6.8 2.6 17.1 5.4 23.7 8.3 21.5 9.6 70.2 18.8 59.7-13.8-2.6-8.2-14.7-7.6-14.8-7.6-36.3 25.7-33.9.4-27.9-9.6 2.8-4.6 2.8-14.5 36.3 5.3 8.3 4.9 18.1 11.5 26.8 15.5 38 17.8 46.7-15.5 47.2-16-4.2 33.5-56.7 30.6-68.2 53l-27.2 1.6-29.2 35.3c-24.8-9.5-57.6-18.8-91.4-19.2" class="st20"/><path id="path1143" d="M268.5 419c-24.7.2-45.4 1.3-65 8.8-6.8 2.6-17.1 5.4-23.7 8.3-21.5 9.6-70.2 18.8-59.7-13.8 2.6-8.2 14.6-7.6 14.8-7.6 36.3 25.7 33.9.4 27.9-9.6-2.8-4.6-2.8-14.5-36.3 5.3-8.3 4.9-18.1 11.5-26.8 15.5-37.9 17.8-46.9-15.5-47.5-16 4.2 33.5 56.9 30.6 68.4 53l27.2 1.6 29.2 35.3c24.8-9.5 57.6-18.8 91.4-19.2" class="st20"/></g></g></g><path id="path1145" d="M61.1 393.4s-11 33 22.5 29.4c0 0-12.3-14.7-22.5-29.4z" class="st21"/><path id="path1147" d="M475.4 394.3s11.7 34.7-23.4 28.6c0-.1 16.7-16.2 23.4-28.6z" class="st21"/><path id="path1149" d="M366 406.5s-9.4 43.4 31.8 17c16.2-10.4 16.7 10.8 9.8 13.8-4.4 1.8-6 6.8-28.5 0s-26.3-9.8-26.3-9.8l-9.9-3z" class="st21"/><path id="path1151" d="M171.7 406.5s9.4 43.4-31.8 17c-16.2-10.4-16.7 10.8-9.8 13.8 4.4 1.8 6 6.8 28.5 0s26.3-9.8 26.3-9.8l9.9-3z" class="st21"/><path id="path1153" d="m477.2 388.4 2.7 7.6s10.8 51-50.9 23.1c-33.7-15.2-49.4-40.1-60.3-10.1-5.3 14.6 7.8 24.4 17 17.5 9.2-7 29.3-14.4 29 2.9s-24.3 13.9-30.7 12.9c-5.7-.9-60-26.8-102.8-26.8l-29.5.1c-42.1 1.6-93.2 25.9-98.8 26.8-6.3 1-30.3 4.3-30.7-12.9-.3-17.3 19.8-9.9 29-2.9s22.3-2.9 17-17.5c-11-30-26.7-5.1-60.3 10.1C46.3 447 56.6 395 56.6 395l1.5-9.2" style="fill:none;stroke:#fcd116;stroke-width:8;stroke-miterlimit:2.6131"/><g id="g1155"><path id="path1157" d="M155.4 468.3c2.3-1.7 97-58.7 216.1-3.3" class="st10"/><path id="path1159" d="m170.4 456.6 2-.2c.2 1.1.1 2.1-.4 2.8s-1.1 1.4-2.1 1.8c-1.2.5-2.4.6-3.6.1s-2.1-1.4-2.7-2.9c-.7-1.5-.8-2.9-.4-4.1s1.2-2.1 2.5-2.7c1.1-.5 2.2-.6 3.2-.2.6.2 1.2.6 1.7 1.3l-1.6 1.3c-.3-.4-.7-.7-1.2-.8s-.9-.1-1.4.2c-.7.3-1.1.8-1.3 1.5s-.1 1.6.4 2.6c.5 1.2 1.1 1.9 1.7 2.2s1.3.3 2 0c.5-.2.8-.6 1.1-1 .2-.6.2-1.2.1-1.9" class="st11"/><path id="path1161" d="M173 454.1c-.4-1-.5-1.8-.5-2.6 0-.6.1-1.1.4-1.6s.5-1 .9-1.3c.5-.5 1.1-.9 1.9-1.2 1.4-.5 2.6-.5 3.8 0s2 1.6 2.6 3.1.6 2.8.2 4c-.5 1.2-1.4 2-2.8 2.6-1.4.5-2.7.5-3.8 0-1.3-.5-2.1-1.6-2.7-3m2.3-7.3-.5.7-1.3.5 1.1-1.4 1.1-.4 1.7.3-1.3.5zm-.4 6.4c.4 1.1 1 1.8 1.7 2.1.7.4 1.4.4 2.2.1q1.2-.45 1.5-1.5c.3-1.05.2-1.6-.2-2.7s-1-1.8-1.6-2.1c-.7-.3-1.4-.4-2.2-.1s-1.3.8-1.6 1.5c-.3.8-.2 1.7.2 2.7m4.4 6.6-.7-1.8 1.8-.7.7 1.8z" class="st11"/><path id="path1163" d="m185.2 454.6-3.2-9.5 1.9-.6 6 5-2.1-6.3 1.8-.6 3.2 9.5-1.9.6-5.9-4.9 2.1 6.2z" class="st11"/><path id="path1165" d="m198.2 446.7-.5-1.6 4.2-1.2 1.1 3.8c-.3.5-.8 1-1.5 1.6-.7.5-1.4.9-2.2 1.1-1 .3-1.9.3-2.8.1s-1.6-.6-2.2-1.3-1-1.5-1.3-2.4c-.3-1-.3-2-.1-2.9s.6-1.7 1.3-2.3c.5-.5 1.2-.9 2.2-1.1 1.2-.3 2.2-.4 3-.1s1.4.9 1.9 1.7l-1.8.9c-.3-.4-.6-.7-1.1-.9q-.75-.3-1.5 0c-.9.2-1.4.7-1.8 1.4-.3.7-.4 1.6-.1 2.6q.45 1.65 1.5 2.4c1.05.75 1.4.5 2.2.3q.6-.15 1.2-.6t.9-.9l-.4-1.2z" class="st11"/><path id="path1167" d="m208.8 447.6-2.2-9.8 2-.4.9 3.8 3.9-.9-.9-3.8 2-.4 2.2 9.8-2 .4-1-4.3-3.9.9 1 4.3z" class="st11"/><path id="path1169" d="M217.3 440.7c-.2-1-.2-1.9 0-2.6.1-.5.4-1 .7-1.5s.7-.8 1.1-1.1c.6-.4 1.3-.6 2.1-.8 1.5-.3 2.7 0 3.7.7s1.7 1.9 2 3.5.1 2.9-.6 4-1.8 1.7-3.2 2c-1.5.3-2.7 0-3.7-.7-1.1-.8-1.8-2-2.1-3.5m4.9-6.7-1.2.2-2.2-1.7 2.1-.4zm-2.8 6.2q.3 1.65 1.2 2.4c.6.5 1.3.7 2.1.5s1.4-.5 1.8-1.2q.6-1.05.3-2.7t-1.2-2.4c-.6-.5-1.3-.6-2.1-.5s-1.4.5-1.8 1.2-.5 1.6-.3 2.7" class="st11"/><path id="path1171" d="m238.2 442.4-2.2.3-1.2-2.1-4 .5-.5 2.4-2.1.3 2.5-10.5 2.1-.3zM234 439l-1.9-3.5-.8 3.9z" class="st11"/><path id="path1173" d="m241.5 442 3-5.5-3.5-4.5 2.4-.2 2.3 3 1.7-3.4 2.3-.2-2.7 5.1 3.8 4.9-2.4.2-2.5-3.3-1.9 3.6z" class="st11"/><path id="path1175" d="m260.7 440.9-2.2.1-1-2.2-4 .2-.7 2.3-2.1.1 3.5-10.2 2.1-.1zm-7.1-10.3h-.9v-.2c0-.5.1-.9.3-1.1s.5-.4.9-.4h.4c.1 0 .4.1.8.3.4.1.7.2.9.2.1 0 .3-.1.4-.2s.1-.3.2-.5h.9c0 .6-.1 1.1-.3 1.3-.2.3-.5.4-.9.4h-.5c-.1 0-.4-.1-.8-.2s-.7-.2-.9-.2c-.1 0-.3.1-.3.1-.2.1-.2.3-.2.5m3.2 6.5-1.5-3.7-1.2 3.8z" class="st11"/><path id="path1177" d="m265.5 440.9.2-10h2l-.1 3.9 4 .1.1-3.9h2l-.2 10h-2l.1-4.4-4-.1-.1 4.4z" class="st11"/><path id="path1179" d="M275.4 436.1c.1-1 .3-1.9.6-2.5.3-.5.6-.9 1-1.3s.9-.7 1.3-.8c.6-.2 1.4-.3 2.2-.3 1.5.1 2.6.6 3.5 1.6.8 1 1.2 2.3 1.1 3.9s-.6 2.9-1.5 3.7c-.9.9-2.1 1.2-3.6 1.2-1.5-.1-2.6-.6-3.5-1.6s-1.2-2.3-1.1-3.9m2.1.1c-.1 1.1.1 2 .6 2.6s1.1 1 1.9 1 1.5-.2 2-.7c.6-.5.9-1.4.9-2.6.1-1.1-.1-2-.6-2.6s-1.1-.9-2-1-1.5.2-2.1.7c-.3.6-.6 1.4-.7 2.6m3.1-5.7-.8.5-1.3-.1 1.5-.8 1.2.1 1.4 1-1.3-.1zm-1.8 13.5.1-1.9 1.9.1-.1 1.9z" class="st11"/><path id="path1181" d="m286.3 441.8.9-10 2 .2-.9 10z" class="st11"/><path id="path1183" d="m300.8 439.8 1.9.9c-.4 1-1.1 1.8-1.8 2.2-.8.4-1.7.6-2.7.4-1.3-.2-2.3-.8-3.1-1.8-.7-1-1-2.3-.8-3.9.2-1.7.8-2.9 1.8-3.7q1.5-1.2 3.6-.9c1.2.2 2.2.7 2.8 1.5.4.5.6 1.1.8 2l-2 .2c0-.5-.2-1-.6-1.3-.3-.3-.8-.6-1.3-.6-.7-.1-1.4.1-1.9.5-.5.5-.9 1.3-1 2.5-.2 1.3-.1 2.2.3 2.8s.9.9 1.7 1c.5.1 1 0 1.4-.3q.45-.45.9-1.5" class="st11"/><path id="path1185" d="m303.9 444 1.8-9.9 2 .4-.7 3.9 3.9.7.7-3.9 2 .4-1.8 9.9-2-.4.8-4.3-3.9-.7-.8 4.3z" class="st11"/><path id="path1187" d="m315.9 436 2 .4-1.2 5.3c-.2.8-.3 1.4-.3 1.7 0 .4.1.8.4 1.1s.7.5 1.2.7c.6.1 1 .1 1.3-.1s.6-.4.7-.7.3-.9.5-1.6l1.2-5.4 2 .4-1.1 5.1c-.3 1.2-.5 2-.7 2.5s-.5.8-.9 1.1-.8.5-1.3.5c-.5.1-1.2.1-1.9-.1-.9-.2-1.6-.5-2.1-.8-.4-.3-.8-.7-1-1.1q-.3-.6-.3-1.2c0-.6.1-1.4.4-2.5zm4.2-.3c.2 0 .4-.1.4-.2s0-.2-.1-.3c-.2-.1-.4-.3-.9-.4-.1 0-.3-.1-.6-.1l.1-.7c.2 0 .5.1 1 .2s1 .3 1.3.6.5.6.4.9c-.1.5-.6.7-1.4.6l-.1.3-.7-.2.2-.7z" class="st11"/><path id="path1189" d="m327.3 448.9 2.7-9.6 1.9.5 2.1 7.6 1.8-6.4 1.8.5-2.7 9.6-2-.5-2.1-7.4-1.8 6.3z" class="st11"/><path id="path1191" d="m342.4 449.6.5-1.6 4.1 1.3-1.2 3.8c-.5.3-1.2.4-2.1.5-.9 0-1.7-.1-2.5-.3q-1.5-.45-2.4-1.5c-.6-.7-1-1.4-1.1-2.3q-.15-1.35.3-2.7.45-1.5 1.5-2.4t2.4-1.2q1.05-.15 2.4.3c1.2.4 2 .9 2.5 1.6s.7 1.5.6 2.5l-2-.3c0-.5-.1-1-.4-1.4s-.7-.7-1.3-.9c-.8-.3-1.6-.2-2.3.1q-1.05.6-1.5 2.1c-.4 1.1-.4 2.1-.1 2.8s.9 1.2 1.7 1.5c.4.1.8.2 1.3.2s.9-.1 1.2-.2l.4-1.2z" class="st11"/><path id="path1193" d="m347.1 455 3.5-9.4 1.9.7-1.4 3.7 3.7 1.4 1.4-3.7 1.9.7-3.5 9.4-1.9-.7 1.5-4.1-3.7-1.4-1.5 4.1z" class="st11"/><path id="path1195" d="m356.5 458.6 3.7-9.3 1.9.7-3.7 9.3zm3.5-10.4-.8-.3c0-.1.1-.2.1-.2.2-.4.4-.7.7-.9s.6-.2 1 0c.1.1.3.1.4.2s.3.3.6.5c.3.3.5.5.7.5.1.1.3.1.4 0 .1 0 .2-.2.3-.4l.8.3c-.2.6-.5.9-.8 1.1s-.6.2-1 0c-.1-.1-.3-.1-.4-.2s-.3-.2-.6-.6c-.3-.3-.6-.5-.8-.6-.1-.1-.3-.1-.4 0 0 .3-.1.4-.2.6" class="st11"/><path id="path1197" d="m368.4 463.5-2-.9.1-2.4-3.7-1.6-1.7 1.8-2-.8 7.5-7.7 2 .8zm-1.9-5.1.2-4-2.7 2.9z" class="st11"/></g><g id="g1199"><path id="path1201" d="M158.4 502.3c2.3-1.7 97-58.7 216.1-3.3" class="st10"/><path id="path1203" d="m196.8 460.6.2.6q-1.2.6-1.8 2.1c-.3.7-.5 2.3-.8 4.6l-2 19.9-.5.2-13.8-15.4c-1.7-1.9-2.7-2.9-3.2-3.2s-1.1-.3-2-.1l-.2-.6 10.8-3.6.2.6-.4.1c-1 .3-1.6.7-1.9 1-.2.3-.2.5-.1.9.1.2.2.4.4.7.2.2.7.9 1.6 1.9l8.6 9.6 1.1-11.5c.1-1.4.2-2.3.2-2.8s-.1-.8-.2-1.1-.3-.6-.6-.8-.6-.3-1-.3c-.5 0-1.2.1-2 .4l-.2-.6z" class="st11"/><path id="path1205" d="m217.1 479.7.2.6-12.1 3-.2-.6.8-.2c.7-.2 1.2-.4 1.5-.8.3-.2.4-.6.5-1 .1-.3-.1-1-.3-2.2l-3.7-15.2c-.3-1.2-.5-1.9-.7-2.2s-.5-.5-1-.6c-.4-.1-1-.1-1.6 0l-.8.2-.2-.6 12.1-3 .2.6-.8.3c-.7.2-1.2.4-1.5.8-.3.2-.4.6-.5 1-.1.3.1 1 .3 2.2l3.7 15.2c.3 1.2.5 1.9.7 2.2s.5.5 1 .6c.4.1 1 .1 1.6 0z" class="st11"/><path id="path1207" d="m223.8 456.2 1.6 9.6.5-.1c1.5-.2 2.5-.9 3-1.9s.7-2.5.6-4.4l.7-.1 2 12.3-.7.1c-.4-1.3-.8-2.4-1.4-3.2q-.9-1.2-1.8-1.5c-.6-.2-1.5-.2-2.6 0l1.1 6.6q.3 1.95.6 2.4c.2.3.4.5.7.6q.45.15 1.5 0l1.4-.2c2.2-.4 3.9-1.2 5-2.4q1.8-1.8 2.1-5.1l.6-.1.2 7.6-20.3 3.3-.1-.6.8-.1c.7-.1 1.2-.3 1.6-.6q.45-.3.6-.9c.1-.3 0-1-.2-2.2l-2.5-15.5c-.2-1.1-.3-1.7-.4-1.9-.2-.4-.4-.7-.8-.8-.5-.3-1.1-.3-1.9-.2l-.8.1-.1-.6 19.7-3.2 1.1 7-.7.1c-.6-1.6-1.3-2.8-2-3.4s-1.7-1-2.8-1.2c-.7-.1-1.9 0-3.7.3zm-.3-6 3.2-.5 3.2 2.1-.8.1-3.8-.6-3.3 1.7-.8.1zm5.5 29.7c.8-.1 1.5 0 2.2.5s1 1.1 1.2 1.9c.1.8 0 1.5-.5 2.2s-1.1 1-1.9 1.2c-.8.1-1.5 0-2.2-.5s-1-1.1-1.2-1.9c-.1-.8 0-1.5.5-2.2.5-.6 1.1-1 1.9-1.2" class="st11"/><path id="path1209" d="m262.2 450.9.4 6.4h-.6c-.5-1.5-1-2.5-1.5-3.1s-1.2-1.1-2-1.4c-.5-.2-1.2-.2-2.4-.2l-1.8.1 1.2 18.3c.1 1.2.2 2 .3 2.3.2.3.4.5.8.7s.9.3 1.6.2h.8v.6l-12.5.8v-.6l.8-.1c.7 0 1.2-.2 1.6-.5.3-.2.5-.5.7-.9.1-.3.1-1 .1-2.2l-1.2-18.3-1.7.1c-1.6.1-2.7.5-3.4 1.2-1 1-1.5 2.4-1.7 4.2h-.7l-.4-6.4z" class="st11"/><path id="path1211" d="m283.5 451.5 10.6 15.6.7-10.2c.1-1.4 0-2.4-.4-2.9-.5-.7-1.4-1.1-2.8-1.2v-.6l7.9.6v.6c-1 .1-1.7.2-2.1.4q-.6.3-.9.9c-.2.4-.4 1.2-.5 2.4l-1.4 19.8h-.6l-14.6-21-1.1 15.1c-.1 1.4.1 2.3.7 2.8q.9.75 2.1.9h.6v.6l-8.4-.6v-.6c1.3.1 2.2-.1 2.8-.6s.9-1.4 1-2.6l1.2-16.8-.5-.7c-.5-.7-.9-1.1-1.2-1.3-.4-.2-.9-.4-1.6-.5v-.6z" class="st11"/><path id="path1213" d="m314.3 472.4-8.3-1.5-1.4 2.1c-.5.7-.7 1.3-.8 1.8-.1.7.1 1.2.5 1.6.3.2 1 .5 2.2.8l-.1.6-7.8-1.4.1-.6c.9 0 1.6-.2 2.3-.7.6-.5 1.5-1.5 2.6-3.2l11.8-17.2.3.1 5 20.8c.5 2 .9 3.2 1.4 3.8q.45.6 1.5.9l-.1.6-11.3-2 .1-.6.5.1c.9.2 1.6.2 2 0 .3-.1.5-.4.5-.7v-.7c0-.1-.1-.6-.3-1.4zm-.3-1.4-2-8.7-5.1 7.4z" class="st11"/><path id="path1215" d="m342.4 478 10.8-13.1 9.3 2.8-.2.6-.7-.2c-.7-.2-1.2-.3-1.7-.1q-.45.15-.9.6c-.2.2-.5.9-.8 2l-4.6 15c-.4 1.2-.5 1.9-.5 2.2s.2.7.5 1 .8.6 1.4.8l.7.2-.2.6-11.9-3.6.2-.6.7.2c.7.2 1.2.3 1.7.1q.45-.15.9-.6c.2-.2.5-.9.8-2.1l5.2-16.9-15.1 18.2-.4-.1-2.6-23.4-4.9 16.1c-.3 1.1-.5 1.8-.5 2.1 0 .6.2 1.2.5 1.7s1.1.9 2.1 1.2l-.2.6-7.8-2.4.2-.6.2.1c.5.2 1 .2 1.5.2s.9-.2 1.2-.4.6-.6.9-1.1c.1-.1.2-.7.6-1.7l4.4-14.4c.4-1.2.5-1.9.5-2.2s-.2-.7-.5-1-.8-.6-1.4-.8l-.7-.2.2-.6 9.3 2.8z" class="st11"/></g></g></g><g id="nGOI_SAO" transform="translate(-6.627 -10.41)"><g id="Ngoi_sao"><path id="polygon2979" d="M286.1 141.3 268.7 165V88.1z" class="st23"/><path id="polygon2981" d="m251.4 141.3 17.3 23.7V88.1z" class="st24"/><path id="polygon2983" d="m251.4 141.3 17.3 23.7-73.3-23.7z" class="st23"/><path id="polygon2985" d="m240.8 174.1 27.9-9.1-73.3-23.7z" class="st24"/><path id="polygon2987" d="m240.8 174.1 27.9-9.1-45.3 62.4z" class="st23"/><path id="polygon2989" d="M268.7 194.5V165l-45.3 62.4z" class="st24"/><path id="polygon2991" d="M268.7 194.5V165l45.4 62.4z" class="st23"/><path id="polygon2993" d="m296.7 174.1-28-9.1 45.4 62.4z" class="st24"/><path id="polygon2995" d="m296.7 174.1-28-9.1 73.4-23.7z" class="st23"/><path id="polygon2979_1_" d="M286.1 141.3 268.7 165V88.1z" class="st25"/><path id="polygon2983_1_" d="m251.4 141.3 17.3 23.7-73.3-23.7z" style="opacity:.31;fill:#945804"/><path id="polygon2987_1_" d="m240.8 174.1 27.9-9.1-45.3 62.4z" class="st25"/><path id="polygon2991_1_" d="M268.7 194.5V165l45.4 62.4z" class="st25"/><path id="polygon2995_1_" d="m296.7 174.1-28-9.1 73.4-23.7z" class="st25"/><path id="polygon2997" d="M286.1 141.3 268.7 165l73.4-23.7z" class="st24"/></g></g><image xlink:href="6506CF90.jpg" width="958" height="749" style="overflow:visible" transform="translate(535.745 -74.153)"/></svg>